G75*
%MOIN*%
%OFA0B0*%
%FSLAX24Y24*%
%IPPOS*%
%LPD*%
%AMOC8*
5,1,8,0,0,1.08239X$1,22.5*
%
%ADD10R,0.0660X0.0660*%
%ADD11OC8,0.0660*%
%ADD12R,0.0600X0.0600*%
%ADD13OC8,0.0600*%
%ADD14C,0.0270*%
%ADD15C,0.0160*%
%ADD16C,0.0100*%
D10*
X008700Y005100D03*
D11*
X007700Y005100D03*
X007700Y004100D03*
X007700Y003100D03*
X008700Y003100D03*
X008700Y004100D03*
D12*
X005650Y006750D03*
X005650Y007750D03*
X005650Y008750D03*
D13*
X004650Y008750D03*
X004650Y007750D03*
X003650Y007750D03*
X003650Y008750D03*
X002650Y008750D03*
X002650Y007750D03*
X002650Y006750D03*
X003650Y006750D03*
X004650Y006750D03*
X006650Y007750D03*
X006650Y008750D03*
X001650Y008750D03*
X001650Y007750D03*
X001650Y006750D03*
X000770Y004110D03*
X000770Y003120D03*
D14*
X004000Y004400D03*
X004350Y003800D03*
X004750Y004700D03*
X005200Y005600D03*
X006100Y005700D03*
X006300Y003700D03*
X005050Y002650D03*
D15*
X004750Y002950D01*
X004750Y004700D01*
D16*
X000393Y000764D02*
X000549Y000549D01*
X000764Y000393D01*
X001017Y000310D01*
X001150Y000300D01*
X008650Y000300D01*
X008783Y000310D01*
X009036Y000393D01*
X009251Y000549D01*
X009407Y000764D01*
X009490Y001017D01*
X009500Y001150D01*
X009500Y008650D01*
X009490Y008783D01*
X009407Y009036D01*
X009251Y009251D01*
X009036Y009407D01*
X008783Y009490D01*
X008650Y009500D01*
X001150Y009500D01*
X001017Y009490D01*
X000764Y009407D01*
X000549Y009251D01*
X000393Y009036D01*
X000310Y008783D01*
X000300Y008650D01*
X000300Y001150D01*
X000310Y001017D01*
X000393Y000764D01*
X000409Y000741D02*
X000856Y000741D01*
X000908Y000689D02*
X001195Y000570D01*
X001505Y000570D01*
X001792Y000689D01*
X002011Y000908D01*
X002130Y001195D01*
X002130Y001505D01*
X002011Y001792D01*
X001792Y002011D01*
X001505Y002130D01*
X001195Y002130D01*
X000908Y002011D01*
X000689Y001792D01*
X000570Y001505D01*
X000570Y001195D01*
X000689Y000908D01*
X000908Y000689D01*
X001020Y000643D02*
X000481Y000643D01*
X000556Y000544D02*
X009244Y000544D01*
X009319Y000643D02*
X001680Y000643D01*
X001844Y000741D02*
X009391Y000741D01*
X009432Y000840D02*
X001942Y000840D01*
X002024Y000938D02*
X009464Y000938D01*
X009491Y001037D02*
X002064Y001037D01*
X002105Y001135D02*
X009499Y001135D01*
X009500Y001234D02*
X002130Y001234D01*
X002130Y001332D02*
X009500Y001332D01*
X009500Y001431D02*
X002130Y001431D01*
X002120Y001529D02*
X009500Y001529D01*
X009500Y001628D02*
X002079Y001628D01*
X002038Y001726D02*
X009500Y001726D01*
X009500Y001825D02*
X001978Y001825D01*
X001880Y001923D02*
X009500Y001923D01*
X009500Y002022D02*
X001767Y002022D01*
X001529Y002120D02*
X009500Y002120D01*
X009500Y002219D02*
X000300Y002219D01*
X000300Y002317D02*
X009500Y002317D01*
X009500Y002416D02*
X005219Y002416D01*
X005211Y002408D02*
X005292Y002489D01*
X005335Y002593D01*
X005335Y002707D01*
X005292Y002811D01*
X005211Y002892D01*
X005107Y002935D01*
X005090Y002935D01*
X004980Y003045D01*
X004980Y004527D01*
X004992Y004539D01*
X005035Y004643D01*
X005035Y004757D01*
X004992Y004861D01*
X004911Y004942D01*
X004807Y004985D01*
X004693Y004985D01*
X004589Y004942D01*
X004550Y004903D01*
X004550Y006300D01*
X004836Y006300D01*
X005100Y006564D01*
X005100Y006936D01*
X004836Y007200D01*
X004464Y007200D01*
X004200Y006936D01*
X004200Y006583D01*
X004150Y006533D01*
X004150Y006533D01*
X004100Y006583D01*
X004100Y006936D01*
X003836Y007200D01*
X003464Y007200D01*
X003200Y006936D01*
X003200Y006564D01*
X003464Y006300D01*
X003800Y006300D01*
X003800Y004603D01*
X003758Y004561D01*
X003715Y004457D01*
X003715Y004343D01*
X003758Y004239D01*
X003839Y004158D01*
X003943Y004115D01*
X004057Y004115D01*
X004150Y004154D01*
X004150Y004003D01*
X004108Y003961D01*
X004065Y003857D01*
X004065Y003743D01*
X004108Y003639D01*
X004189Y003558D01*
X004293Y003515D01*
X004407Y003515D01*
X004511Y003558D01*
X004520Y003567D01*
X004520Y002855D01*
X004765Y002610D01*
X004765Y002593D01*
X004808Y002489D01*
X004889Y002408D01*
X004993Y002365D01*
X005107Y002365D01*
X005211Y002408D01*
X005302Y002514D02*
X009500Y002514D01*
X009500Y002613D02*
X005335Y002613D01*
X005333Y002711D02*
X007410Y002711D01*
X007501Y002620D02*
X007650Y002620D01*
X007650Y003050D01*
X007750Y003050D01*
X007750Y003150D01*
X008180Y003150D01*
X008180Y003299D01*
X008079Y003400D01*
X008083Y003400D01*
X008283Y003600D01*
X008400Y003717D01*
X008400Y003721D01*
X008501Y003620D01*
X008899Y003620D01*
X009180Y003901D01*
X009180Y004299D01*
X008899Y004580D01*
X008501Y004580D01*
X008400Y004479D01*
X008400Y004517D01*
X008503Y004620D01*
X009092Y004620D01*
X009180Y004708D01*
X009180Y005492D01*
X009092Y005580D01*
X008308Y005580D01*
X008220Y005492D01*
X008220Y004903D01*
X008000Y004683D01*
X008000Y004479D01*
X007899Y004580D01*
X007503Y004580D01*
X006385Y005698D01*
X006385Y005757D01*
X006342Y005861D01*
X006261Y005942D01*
X006157Y005985D01*
X006043Y005985D01*
X005939Y005942D01*
X005858Y005861D01*
X005815Y005757D01*
X005815Y005643D01*
X005858Y005539D01*
X005939Y005458D01*
X006043Y005415D01*
X006102Y005415D01*
X007220Y004297D01*
X007220Y003901D01*
X007221Y003900D01*
X006503Y003900D01*
X006461Y003942D01*
X006357Y003985D01*
X006243Y003985D01*
X006139Y003942D01*
X006058Y003861D01*
X006015Y003757D01*
X006015Y003643D01*
X006058Y003539D01*
X006139Y003458D01*
X006243Y003415D01*
X006357Y003415D01*
X006461Y003458D01*
X006503Y003500D01*
X007067Y003500D01*
X007167Y003400D01*
X007321Y003400D01*
X007220Y003299D01*
X007220Y003150D01*
X007650Y003150D01*
X007650Y003050D01*
X007220Y003050D01*
X007220Y002901D01*
X007501Y002620D01*
X007650Y002711D02*
X007750Y002711D01*
X007750Y002620D02*
X007899Y002620D01*
X008180Y002901D01*
X008180Y003050D01*
X007750Y003050D01*
X007750Y002620D01*
X007750Y002810D02*
X007650Y002810D01*
X007650Y002908D02*
X007750Y002908D01*
X007750Y003007D02*
X007650Y003007D01*
X007650Y003105D02*
X004980Y003105D01*
X004980Y003204D02*
X007220Y003204D01*
X007223Y003302D02*
X004980Y003302D01*
X004980Y003401D02*
X007167Y003401D01*
X007068Y003499D02*
X006502Y003499D01*
X006300Y003700D02*
X007150Y003700D01*
X007250Y003600D01*
X008000Y003600D01*
X008200Y003800D01*
X008200Y004600D01*
X008700Y005100D01*
X008295Y005568D02*
X007911Y005568D01*
X007899Y005580D02*
X007501Y005580D01*
X007220Y005299D01*
X007220Y004901D01*
X007501Y004620D01*
X007899Y004620D01*
X008180Y004901D01*
X008180Y005299D01*
X007899Y005580D01*
X008010Y005469D02*
X008220Y005469D01*
X008220Y005371D02*
X008108Y005371D01*
X008180Y005272D02*
X008220Y005272D01*
X008220Y005174D02*
X008180Y005174D01*
X008180Y005075D02*
X008220Y005075D01*
X008220Y004977D02*
X008180Y004977D01*
X008195Y004878D02*
X008157Y004878D01*
X008097Y004780D02*
X008058Y004780D01*
X008000Y004681D02*
X007960Y004681D01*
X008000Y004583D02*
X007500Y004583D01*
X007440Y004681D02*
X007402Y004681D01*
X007342Y004780D02*
X007303Y004780D01*
X007243Y004878D02*
X007205Y004878D01*
X007220Y004977D02*
X007106Y004977D01*
X007008Y005075D02*
X007220Y005075D01*
X007220Y005174D02*
X006909Y005174D01*
X006811Y005272D02*
X007220Y005272D01*
X007292Y005371D02*
X006712Y005371D01*
X006614Y005469D02*
X007390Y005469D01*
X007489Y005568D02*
X006515Y005568D01*
X006417Y005666D02*
X009500Y005666D01*
X009500Y005568D02*
X009105Y005568D01*
X009180Y005469D02*
X009500Y005469D01*
X009500Y005371D02*
X009180Y005371D01*
X009180Y005272D02*
X009500Y005272D01*
X009500Y005174D02*
X009180Y005174D01*
X009180Y005075D02*
X009500Y005075D01*
X009500Y004977D02*
X009180Y004977D01*
X009180Y004878D02*
X009500Y004878D01*
X009500Y004780D02*
X009180Y004780D01*
X009153Y004681D02*
X009500Y004681D01*
X009500Y004583D02*
X008465Y004583D01*
X008405Y004484D02*
X008400Y004484D01*
X008000Y004484D02*
X007995Y004484D01*
X007700Y004100D02*
X006100Y005700D01*
X005987Y005962D02*
X004550Y005962D01*
X004550Y006060D02*
X009500Y006060D01*
X009500Y005962D02*
X006213Y005962D01*
X006340Y005863D02*
X009500Y005863D01*
X009500Y005765D02*
X006382Y005765D01*
X006147Y005371D02*
X004550Y005371D01*
X004550Y005469D02*
X005928Y005469D01*
X005846Y005568D02*
X004550Y005568D01*
X004550Y005666D02*
X005815Y005666D01*
X005818Y005765D02*
X004550Y005765D01*
X004550Y005863D02*
X005860Y005863D01*
X006012Y006300D02*
X006100Y006388D01*
X006100Y007112D01*
X006012Y007200D01*
X005288Y007200D01*
X005200Y007112D01*
X005200Y006388D01*
X005288Y006300D01*
X006012Y006300D01*
X006068Y006356D02*
X009500Y006356D01*
X009500Y006454D02*
X006100Y006454D01*
X006100Y006553D02*
X009500Y006553D01*
X009500Y006651D02*
X006100Y006651D01*
X006100Y006750D02*
X009500Y006750D01*
X009500Y006848D02*
X006100Y006848D01*
X006100Y006947D02*
X009500Y006947D01*
X009500Y007045D02*
X006100Y007045D01*
X006069Y007144D02*
X009500Y007144D01*
X009500Y007242D02*
X000300Y007242D01*
X000300Y007144D02*
X001407Y007144D01*
X001464Y007200D02*
X001200Y006936D01*
X001200Y006564D01*
X001464Y006300D01*
X001836Y006300D01*
X002100Y006564D01*
X002100Y006936D01*
X001836Y007200D01*
X001464Y007200D01*
X001464Y007300D02*
X001836Y007300D01*
X002100Y007564D01*
X002100Y007936D01*
X001836Y008200D01*
X001464Y008200D01*
X001200Y007936D01*
X001200Y007564D01*
X001464Y007300D01*
X001423Y007341D02*
X000300Y007341D01*
X000300Y007439D02*
X001325Y007439D01*
X001226Y007538D02*
X000300Y007538D01*
X000300Y007636D02*
X001200Y007636D01*
X001200Y007735D02*
X000300Y007735D01*
X000300Y007833D02*
X001200Y007833D01*
X001200Y007932D02*
X000300Y007932D01*
X000300Y008030D02*
X001294Y008030D01*
X001392Y008129D02*
X000300Y008129D01*
X000300Y008227D02*
X007698Y008227D01*
X007670Y008295D02*
X007789Y008008D01*
X008008Y007789D01*
X008295Y007670D01*
X008605Y007670D01*
X008892Y007789D01*
X009111Y008008D01*
X009230Y008295D01*
X009230Y008605D01*
X009111Y008892D01*
X008892Y009111D01*
X008605Y009230D01*
X008295Y009230D01*
X008008Y009111D01*
X007789Y008892D01*
X007670Y008605D01*
X007670Y008295D01*
X007670Y008326D02*
X006862Y008326D01*
X006836Y008300D02*
X007100Y008564D01*
X007100Y008700D01*
X006700Y008700D01*
X006700Y008800D01*
X007100Y008800D01*
X007100Y008936D01*
X006836Y009200D01*
X006700Y009200D01*
X006700Y008800D01*
X006600Y008800D01*
X006600Y009200D01*
X006464Y009200D01*
X006200Y008936D01*
X006200Y008800D01*
X006600Y008800D01*
X006600Y008700D01*
X006700Y008700D01*
X006700Y008300D01*
X006836Y008300D01*
X006836Y008200D02*
X006464Y008200D01*
X006200Y007936D01*
X006200Y007564D01*
X006464Y007300D01*
X006836Y007300D01*
X007100Y007564D01*
X007100Y007936D01*
X006836Y008200D01*
X006908Y008129D02*
X007739Y008129D01*
X007780Y008030D02*
X007006Y008030D01*
X007100Y007932D02*
X007866Y007932D01*
X007964Y007833D02*
X007100Y007833D01*
X007100Y007735D02*
X008139Y007735D01*
X008761Y007735D02*
X009500Y007735D01*
X009500Y007833D02*
X008936Y007833D01*
X009034Y007932D02*
X009500Y007932D01*
X009500Y008030D02*
X009120Y008030D01*
X009161Y008129D02*
X009500Y008129D01*
X009500Y008227D02*
X009202Y008227D01*
X009230Y008326D02*
X009500Y008326D01*
X009500Y008424D02*
X009230Y008424D01*
X009230Y008523D02*
X009500Y008523D01*
X009500Y008621D02*
X009223Y008621D01*
X009183Y008720D02*
X009495Y008720D01*
X009478Y008818D02*
X009142Y008818D01*
X009086Y008917D02*
X009446Y008917D01*
X009414Y009015D02*
X008988Y009015D01*
X008886Y009114D02*
X009351Y009114D01*
X009279Y009212D02*
X008648Y009212D01*
X008252Y009212D02*
X000521Y009212D01*
X000631Y009311D02*
X009169Y009311D01*
X009031Y009409D02*
X000769Y009409D01*
X000449Y009114D02*
X001377Y009114D01*
X001464Y009200D02*
X001200Y008936D01*
X001200Y008800D01*
X001600Y008800D01*
X001600Y009200D01*
X001464Y009200D01*
X001600Y009114D02*
X001700Y009114D01*
X001700Y009200D02*
X001836Y009200D01*
X002100Y008936D01*
X002100Y008800D01*
X001700Y008800D01*
X001700Y008700D01*
X002100Y008700D01*
X002100Y008564D01*
X001836Y008300D01*
X001700Y008300D01*
X001700Y008700D01*
X001600Y008700D01*
X001600Y008300D01*
X001464Y008300D01*
X001200Y008564D01*
X001200Y008700D01*
X001600Y008700D01*
X001600Y008800D01*
X001700Y008800D01*
X001700Y009200D01*
X001700Y009015D02*
X001600Y009015D01*
X001600Y008917D02*
X001700Y008917D01*
X001700Y008818D02*
X001600Y008818D01*
X001600Y008720D02*
X000305Y008720D01*
X000300Y008621D02*
X001200Y008621D01*
X001241Y008523D02*
X000300Y008523D01*
X000300Y008424D02*
X001340Y008424D01*
X001438Y008326D02*
X000300Y008326D01*
X000322Y008818D02*
X001200Y008818D01*
X001200Y008917D02*
X000354Y008917D01*
X000386Y009015D02*
X001279Y009015D01*
X001600Y008621D02*
X001700Y008621D01*
X001700Y008523D02*
X001600Y008523D01*
X001600Y008424D02*
X001700Y008424D01*
X001700Y008326D02*
X001600Y008326D01*
X001862Y008326D02*
X002438Y008326D01*
X002464Y008300D02*
X002600Y008300D01*
X002600Y008700D01*
X002700Y008700D01*
X002700Y008800D01*
X003100Y008800D01*
X003100Y008936D01*
X002836Y009200D01*
X002700Y009200D01*
X002700Y008800D01*
X002600Y008800D01*
X002600Y009200D01*
X002464Y009200D01*
X002200Y008936D01*
X002200Y008800D01*
X002600Y008800D01*
X002600Y008700D01*
X002200Y008700D01*
X002200Y008564D01*
X002464Y008300D01*
X002464Y008200D02*
X002200Y007936D01*
X002200Y007564D01*
X002464Y007300D01*
X002836Y007300D01*
X003100Y007564D01*
X003100Y007936D01*
X002836Y008200D01*
X002464Y008200D01*
X002392Y008129D02*
X001908Y008129D01*
X002006Y008030D02*
X002294Y008030D01*
X002200Y007932D02*
X002100Y007932D01*
X002100Y007833D02*
X002200Y007833D01*
X002200Y007735D02*
X002100Y007735D01*
X002100Y007636D02*
X002200Y007636D01*
X002226Y007538D02*
X002074Y007538D01*
X001975Y007439D02*
X002325Y007439D01*
X002423Y007341D02*
X001877Y007341D01*
X001893Y007144D02*
X002407Y007144D01*
X002464Y007200D02*
X002200Y006936D01*
X002200Y006564D01*
X002464Y006300D01*
X002836Y006300D01*
X003100Y006564D01*
X003100Y006936D01*
X002836Y007200D01*
X002464Y007200D01*
X002309Y007045D02*
X001991Y007045D01*
X002090Y006947D02*
X002210Y006947D01*
X002200Y006848D02*
X002100Y006848D01*
X002100Y006750D02*
X002200Y006750D01*
X002200Y006651D02*
X002100Y006651D01*
X002089Y006553D02*
X002211Y006553D01*
X002310Y006454D02*
X001990Y006454D01*
X001892Y006356D02*
X002408Y006356D01*
X002892Y006356D02*
X003408Y006356D01*
X003310Y006454D02*
X002990Y006454D01*
X003089Y006553D02*
X003211Y006553D01*
X003200Y006651D02*
X003100Y006651D01*
X003100Y006750D02*
X003200Y006750D01*
X003200Y006848D02*
X003100Y006848D01*
X003090Y006947D02*
X003210Y006947D01*
X003309Y007045D02*
X002991Y007045D01*
X002893Y007144D02*
X003407Y007144D01*
X003464Y007300D02*
X003836Y007300D01*
X004100Y007564D01*
X004100Y007936D01*
X003836Y008200D01*
X003464Y008200D01*
X003200Y007936D01*
X003200Y007564D01*
X003464Y007300D01*
X003423Y007341D02*
X002877Y007341D01*
X002975Y007439D02*
X003325Y007439D01*
X003226Y007538D02*
X003074Y007538D01*
X003100Y007636D02*
X003200Y007636D01*
X003200Y007735D02*
X003100Y007735D01*
X003100Y007833D02*
X003200Y007833D01*
X003200Y007932D02*
X003100Y007932D01*
X003006Y008030D02*
X003294Y008030D01*
X003392Y008129D02*
X002908Y008129D01*
X002836Y008300D02*
X002700Y008300D01*
X002700Y008700D01*
X003100Y008700D01*
X003100Y008564D01*
X002836Y008300D01*
X002862Y008326D02*
X003438Y008326D01*
X003464Y008300D02*
X003600Y008300D01*
X003600Y008700D01*
X003700Y008700D01*
X003700Y008800D01*
X004100Y008800D01*
X004100Y008936D01*
X003836Y009200D01*
X003700Y009200D01*
X003700Y008800D01*
X003600Y008800D01*
X003600Y009200D01*
X003464Y009200D01*
X003200Y008936D01*
X003200Y008800D01*
X003600Y008800D01*
X003600Y008700D01*
X003200Y008700D01*
X003200Y008564D01*
X003464Y008300D01*
X003600Y008326D02*
X003700Y008326D01*
X003700Y008300D02*
X003836Y008300D01*
X004100Y008564D01*
X004100Y008700D01*
X003700Y008700D01*
X003700Y008300D01*
X003700Y008424D02*
X003600Y008424D01*
X003600Y008523D02*
X003700Y008523D01*
X003700Y008621D02*
X003600Y008621D01*
X003600Y008720D02*
X002700Y008720D01*
X002700Y008818D02*
X002600Y008818D01*
X002600Y008720D02*
X001700Y008720D01*
X001960Y008424D02*
X002340Y008424D01*
X002241Y008523D02*
X002059Y008523D01*
X002100Y008621D02*
X002200Y008621D01*
X002200Y008818D02*
X002100Y008818D01*
X002100Y008917D02*
X002200Y008917D01*
X002279Y009015D02*
X002021Y009015D01*
X001923Y009114D02*
X002377Y009114D01*
X002600Y009114D02*
X002700Y009114D01*
X002700Y009015D02*
X002600Y009015D01*
X002600Y008917D02*
X002700Y008917D01*
X002923Y009114D02*
X003377Y009114D01*
X003279Y009015D02*
X003021Y009015D01*
X003100Y008917D02*
X003200Y008917D01*
X003200Y008818D02*
X003100Y008818D01*
X003100Y008621D02*
X003200Y008621D01*
X003241Y008523D02*
X003059Y008523D01*
X002960Y008424D02*
X003340Y008424D01*
X003700Y008720D02*
X004600Y008720D01*
X004600Y008700D02*
X004200Y008700D01*
X004200Y008564D01*
X004464Y008300D01*
X004600Y008300D01*
X004600Y008700D01*
X004700Y008700D01*
X004700Y008800D01*
X005100Y008800D01*
X005100Y008936D01*
X004836Y009200D01*
X004700Y009200D01*
X004700Y008800D01*
X004600Y008800D01*
X004600Y009200D01*
X004464Y009200D01*
X004200Y008936D01*
X004200Y008800D01*
X004600Y008800D01*
X004600Y008700D01*
X004600Y008621D02*
X004700Y008621D01*
X004700Y008700D02*
X004700Y008300D01*
X004836Y008300D01*
X005100Y008564D01*
X005100Y008700D01*
X004700Y008700D01*
X004700Y008720D02*
X005600Y008720D01*
X005600Y008700D02*
X005200Y008700D01*
X005200Y008430D01*
X005210Y008392D01*
X005230Y008358D01*
X005258Y008330D01*
X005292Y008310D01*
X005330Y008300D01*
X005600Y008300D01*
X005600Y008700D01*
X005600Y008800D01*
X005600Y009200D01*
X005330Y009200D01*
X005292Y009190D01*
X005258Y009170D01*
X005230Y009142D01*
X005210Y009108D01*
X005200Y009070D01*
X005200Y008800D01*
X005600Y008800D01*
X005700Y008800D01*
X005700Y009200D01*
X005970Y009200D01*
X006008Y009190D01*
X006042Y009170D01*
X006070Y009142D01*
X006090Y009108D01*
X006100Y009070D01*
X006100Y008800D01*
X005700Y008800D01*
X005700Y008700D01*
X006100Y008700D01*
X006100Y008430D01*
X006090Y008392D01*
X006070Y008358D01*
X006042Y008330D01*
X006008Y008310D01*
X005970Y008300D01*
X005700Y008300D01*
X005700Y008700D01*
X005600Y008700D01*
X005600Y008621D02*
X005700Y008621D01*
X005700Y008523D02*
X005600Y008523D01*
X005600Y008424D02*
X005700Y008424D01*
X005700Y008326D02*
X005600Y008326D01*
X005266Y008326D02*
X004862Y008326D01*
X004836Y008200D02*
X004464Y008200D01*
X004200Y007936D01*
X004200Y007564D01*
X004464Y007300D01*
X004836Y007300D01*
X005100Y007564D01*
X005100Y007936D01*
X004836Y008200D01*
X004908Y008129D02*
X005216Y008129D01*
X005200Y008112D02*
X005288Y008200D01*
X006012Y008200D01*
X006100Y008112D01*
X006100Y007388D01*
X006012Y007300D01*
X005288Y007300D01*
X005200Y007388D01*
X005200Y008112D01*
X005200Y008030D02*
X005006Y008030D01*
X005100Y007932D02*
X005200Y007932D01*
X005200Y007833D02*
X005100Y007833D01*
X005100Y007735D02*
X005200Y007735D01*
X005200Y007636D02*
X005100Y007636D01*
X005074Y007538D02*
X005200Y007538D01*
X005200Y007439D02*
X004975Y007439D01*
X004877Y007341D02*
X005247Y007341D01*
X005231Y007144D02*
X004893Y007144D01*
X004991Y007045D02*
X005200Y007045D01*
X005200Y006947D02*
X005090Y006947D01*
X005100Y006848D02*
X005200Y006848D01*
X005200Y006750D02*
X005100Y006750D01*
X005100Y006651D02*
X005200Y006651D01*
X005200Y006553D02*
X005089Y006553D01*
X004990Y006454D02*
X005200Y006454D01*
X005232Y006356D02*
X004892Y006356D01*
X004550Y006257D02*
X009500Y006257D01*
X009500Y006159D02*
X004550Y006159D01*
X004350Y006450D02*
X004650Y006750D01*
X004350Y006450D02*
X004350Y003800D01*
X004149Y003598D02*
X000300Y003598D01*
X000300Y003696D02*
X000548Y003696D01*
X000584Y003660D02*
X000720Y003660D01*
X000720Y004060D01*
X000820Y004060D01*
X000820Y004160D01*
X001220Y004160D01*
X001220Y004296D01*
X000956Y004560D01*
X000820Y004560D01*
X000820Y004160D01*
X000720Y004160D01*
X000720Y004560D01*
X000584Y004560D01*
X000320Y004296D01*
X000320Y004160D01*
X000720Y004160D01*
X000720Y004060D01*
X000320Y004060D01*
X000320Y003924D01*
X000584Y003660D01*
X000584Y003570D02*
X000320Y003306D01*
X000320Y002934D01*
X000584Y002670D01*
X000956Y002670D01*
X001220Y002934D01*
X001220Y003306D01*
X000956Y003570D01*
X000584Y003570D01*
X000513Y003499D02*
X000300Y003499D01*
X000300Y003401D02*
X000414Y003401D01*
X000320Y003302D02*
X000300Y003302D01*
X000300Y003204D02*
X000320Y003204D01*
X000320Y003105D02*
X000300Y003105D01*
X000300Y003007D02*
X000320Y003007D01*
X000300Y002908D02*
X000346Y002908D01*
X000300Y002810D02*
X000444Y002810D01*
X000543Y002711D02*
X000300Y002711D01*
X000300Y002613D02*
X004762Y002613D01*
X004798Y002514D02*
X000300Y002514D01*
X000300Y002416D02*
X004881Y002416D01*
X004664Y002711D02*
X000997Y002711D01*
X001096Y002810D02*
X004565Y002810D01*
X004520Y002908D02*
X001194Y002908D01*
X001220Y003007D02*
X004520Y003007D01*
X004520Y003105D02*
X001220Y003105D01*
X001220Y003204D02*
X004520Y003204D01*
X004520Y003302D02*
X001220Y003302D01*
X001126Y003401D02*
X004520Y003401D01*
X004520Y003499D02*
X001027Y003499D01*
X000956Y003660D02*
X000820Y003660D01*
X000820Y004060D01*
X001220Y004060D01*
X001220Y003924D01*
X000956Y003660D01*
X000992Y003696D02*
X004085Y003696D01*
X004065Y003795D02*
X001091Y003795D01*
X001189Y003893D02*
X004080Y003893D01*
X004138Y003992D02*
X001220Y003992D01*
X001220Y004189D02*
X003808Y004189D01*
X003738Y004287D02*
X001220Y004287D01*
X001131Y004386D02*
X003715Y004386D01*
X003726Y004484D02*
X001032Y004484D01*
X000820Y004484D02*
X000720Y004484D01*
X000720Y004386D02*
X000820Y004386D01*
X000820Y004287D02*
X000720Y004287D01*
X000720Y004189D02*
X000820Y004189D01*
X000820Y004090D02*
X004150Y004090D01*
X004000Y004400D02*
X004000Y006400D01*
X003650Y006750D01*
X003991Y007045D02*
X004309Y007045D01*
X004407Y007144D02*
X003893Y007144D01*
X003877Y007341D02*
X004423Y007341D01*
X004325Y007439D02*
X003975Y007439D01*
X004074Y007538D02*
X004226Y007538D01*
X004200Y007636D02*
X004100Y007636D01*
X004100Y007735D02*
X004200Y007735D01*
X004200Y007833D02*
X004100Y007833D01*
X004100Y007932D02*
X004200Y007932D01*
X004294Y008030D02*
X004006Y008030D01*
X003908Y008129D02*
X004392Y008129D01*
X004438Y008326D02*
X003862Y008326D01*
X003960Y008424D02*
X004340Y008424D01*
X004241Y008523D02*
X004059Y008523D01*
X004100Y008621D02*
X004200Y008621D01*
X004200Y008818D02*
X004100Y008818D01*
X004100Y008917D02*
X004200Y008917D01*
X004279Y009015D02*
X004021Y009015D01*
X003923Y009114D02*
X004377Y009114D01*
X004600Y009114D02*
X004700Y009114D01*
X004700Y009015D02*
X004600Y009015D01*
X004600Y008917D02*
X004700Y008917D01*
X004700Y008818D02*
X004600Y008818D01*
X004600Y008523D02*
X004700Y008523D01*
X004700Y008424D02*
X004600Y008424D01*
X004600Y008326D02*
X004700Y008326D01*
X004960Y008424D02*
X005202Y008424D01*
X005200Y008523D02*
X005059Y008523D01*
X005100Y008621D02*
X005200Y008621D01*
X005200Y008818D02*
X005100Y008818D01*
X005100Y008917D02*
X005200Y008917D01*
X005200Y009015D02*
X005021Y009015D01*
X004923Y009114D02*
X005213Y009114D01*
X005600Y009114D02*
X005700Y009114D01*
X005700Y009015D02*
X005600Y009015D01*
X005600Y008917D02*
X005700Y008917D01*
X005700Y008818D02*
X005600Y008818D01*
X005700Y008720D02*
X006600Y008720D01*
X006600Y008700D02*
X006200Y008700D01*
X006200Y008564D01*
X006464Y008300D01*
X006600Y008300D01*
X006600Y008700D01*
X006600Y008621D02*
X006700Y008621D01*
X006700Y008523D02*
X006600Y008523D01*
X006600Y008424D02*
X006700Y008424D01*
X006700Y008326D02*
X006600Y008326D01*
X006438Y008326D02*
X006034Y008326D01*
X006098Y008424D02*
X006340Y008424D01*
X006241Y008523D02*
X006100Y008523D01*
X006100Y008621D02*
X006200Y008621D01*
X006200Y008818D02*
X006100Y008818D01*
X006100Y008917D02*
X006200Y008917D01*
X006279Y009015D02*
X006100Y009015D01*
X006087Y009114D02*
X006377Y009114D01*
X006600Y009114D02*
X006700Y009114D01*
X006700Y009015D02*
X006600Y009015D01*
X006600Y008917D02*
X006700Y008917D01*
X006700Y008818D02*
X006600Y008818D01*
X006700Y008720D02*
X007717Y008720D01*
X007758Y008818D02*
X007100Y008818D01*
X007100Y008917D02*
X007814Y008917D01*
X007912Y009015D02*
X007021Y009015D01*
X006923Y009114D02*
X008014Y009114D01*
X007677Y008621D02*
X007100Y008621D01*
X007059Y008523D02*
X007670Y008523D01*
X007670Y008424D02*
X006960Y008424D01*
X006392Y008129D02*
X006084Y008129D01*
X006100Y008030D02*
X006294Y008030D01*
X006200Y007932D02*
X006100Y007932D01*
X006100Y007833D02*
X006200Y007833D01*
X006200Y007735D02*
X006100Y007735D01*
X006100Y007636D02*
X006200Y007636D01*
X006226Y007538D02*
X006100Y007538D01*
X006100Y007439D02*
X006325Y007439D01*
X006423Y007341D02*
X006053Y007341D01*
X006877Y007341D02*
X009500Y007341D01*
X009500Y007439D02*
X006975Y007439D01*
X007074Y007538D02*
X009500Y007538D01*
X009500Y007636D02*
X007100Y007636D01*
X006245Y005272D02*
X004550Y005272D01*
X004550Y005174D02*
X006344Y005174D01*
X006442Y005075D02*
X004550Y005075D01*
X004550Y004977D02*
X004673Y004977D01*
X004827Y004977D02*
X006541Y004977D01*
X006639Y004878D02*
X004975Y004878D01*
X005026Y004780D02*
X006738Y004780D01*
X006836Y004681D02*
X005035Y004681D01*
X005010Y004583D02*
X006935Y004583D01*
X007033Y004484D02*
X004980Y004484D01*
X004980Y004386D02*
X007132Y004386D01*
X007220Y004287D02*
X004980Y004287D01*
X004980Y004189D02*
X007220Y004189D01*
X007220Y004090D02*
X004980Y004090D01*
X004980Y003992D02*
X007220Y003992D01*
X007750Y003105D02*
X008220Y003105D01*
X008220Y003007D02*
X008180Y003007D01*
X008180Y002908D02*
X008220Y002908D01*
X008220Y002901D02*
X008501Y002620D01*
X008899Y002620D01*
X009180Y002901D01*
X009180Y003299D01*
X008899Y003580D01*
X008501Y003580D01*
X008220Y003299D01*
X008220Y002901D01*
X008312Y002810D02*
X008088Y002810D01*
X007990Y002711D02*
X008410Y002711D01*
X008220Y003204D02*
X008180Y003204D01*
X008177Y003302D02*
X008223Y003302D01*
X008322Y003401D02*
X008083Y003401D01*
X008182Y003499D02*
X008420Y003499D01*
X008280Y003598D02*
X009500Y003598D01*
X009500Y003696D02*
X008975Y003696D01*
X009073Y003795D02*
X009500Y003795D01*
X009500Y003893D02*
X009172Y003893D01*
X009180Y003992D02*
X009500Y003992D01*
X009500Y004090D02*
X009180Y004090D01*
X009180Y004189D02*
X009500Y004189D01*
X009500Y004287D02*
X009180Y004287D01*
X009093Y004386D02*
X009500Y004386D01*
X009500Y004484D02*
X008995Y004484D01*
X008425Y003696D02*
X008379Y003696D01*
X008980Y003499D02*
X009500Y003499D01*
X009500Y003401D02*
X009078Y003401D01*
X009177Y003302D02*
X009500Y003302D01*
X009500Y003204D02*
X009180Y003204D01*
X009180Y003105D02*
X009500Y003105D01*
X009500Y003007D02*
X009180Y003007D01*
X009180Y002908D02*
X009500Y002908D01*
X009500Y002810D02*
X009088Y002810D01*
X008990Y002711D02*
X009500Y002711D01*
X007312Y002810D02*
X005292Y002810D01*
X005172Y002908D02*
X007220Y002908D01*
X007220Y003007D02*
X005019Y003007D01*
X004980Y003499D02*
X006098Y003499D01*
X006034Y003598D02*
X004980Y003598D01*
X004980Y003696D02*
X006015Y003696D01*
X006031Y003795D02*
X004980Y003795D01*
X004980Y003893D02*
X006090Y003893D01*
X003779Y004583D02*
X000300Y004583D01*
X000300Y004681D02*
X003800Y004681D01*
X003800Y004780D02*
X000300Y004780D01*
X000300Y004878D02*
X003800Y004878D01*
X003800Y004977D02*
X000300Y004977D01*
X000300Y005075D02*
X003800Y005075D01*
X003800Y005174D02*
X000300Y005174D01*
X000300Y005272D02*
X003800Y005272D01*
X003800Y005371D02*
X000300Y005371D01*
X000300Y005469D02*
X003800Y005469D01*
X003800Y005568D02*
X000300Y005568D01*
X000300Y005666D02*
X003800Y005666D01*
X003800Y005765D02*
X000300Y005765D01*
X000300Y005863D02*
X003800Y005863D01*
X003800Y005962D02*
X000300Y005962D01*
X000300Y006060D02*
X003800Y006060D01*
X003800Y006159D02*
X000300Y006159D01*
X000300Y006257D02*
X003800Y006257D01*
X004130Y006553D02*
X004170Y006553D01*
X004200Y006651D02*
X004100Y006651D01*
X004100Y006750D02*
X004200Y006750D01*
X004200Y006848D02*
X004100Y006848D01*
X004090Y006947D02*
X004210Y006947D01*
X002700Y008326D02*
X002600Y008326D01*
X002600Y008424D02*
X002700Y008424D01*
X002700Y008523D02*
X002600Y008523D01*
X002600Y008621D02*
X002700Y008621D01*
X003600Y008818D02*
X003700Y008818D01*
X003700Y008917D02*
X003600Y008917D01*
X003600Y009015D02*
X003700Y009015D01*
X003700Y009114D02*
X003600Y009114D01*
X001309Y007045D02*
X000300Y007045D01*
X000300Y006947D02*
X001210Y006947D01*
X001200Y006848D02*
X000300Y006848D01*
X000300Y006750D02*
X001200Y006750D01*
X001200Y006651D02*
X000300Y006651D01*
X000300Y006553D02*
X001211Y006553D01*
X001310Y006454D02*
X000300Y006454D01*
X000300Y006356D02*
X001408Y006356D01*
X000508Y004484D02*
X000300Y004484D01*
X000300Y004386D02*
X000409Y004386D01*
X000320Y004287D02*
X000300Y004287D01*
X000300Y004189D02*
X000320Y004189D01*
X000300Y004090D02*
X000720Y004090D01*
X000720Y003992D02*
X000820Y003992D01*
X000820Y003893D02*
X000720Y003893D01*
X000720Y003795D02*
X000820Y003795D01*
X000820Y003696D02*
X000720Y003696D01*
X000449Y003795D02*
X000300Y003795D01*
X000300Y003893D02*
X000351Y003893D01*
X000320Y003992D02*
X000300Y003992D01*
X000300Y002120D02*
X001171Y002120D01*
X000933Y002022D02*
X000300Y002022D01*
X000300Y001923D02*
X000820Y001923D01*
X000722Y001825D02*
X000300Y001825D01*
X000300Y001726D02*
X000662Y001726D01*
X000621Y001628D02*
X000300Y001628D01*
X000300Y001529D02*
X000580Y001529D01*
X000570Y001431D02*
X000300Y001431D01*
X000300Y001332D02*
X000570Y001332D01*
X000570Y001234D02*
X000300Y001234D01*
X000301Y001135D02*
X000595Y001135D01*
X000636Y001037D02*
X000309Y001037D01*
X000336Y000938D02*
X000676Y000938D01*
X000758Y000840D02*
X000368Y000840D01*
X000691Y000446D02*
X009109Y000446D01*
X008895Y000347D02*
X000905Y000347D01*
M02*
