G75*
%MOIN*%
%OFA0B0*%
%FSLAX24Y24*%
%IPPOS*%
%LPD*%
%AMOC8*
5,1,8,0,0,1.08239X$1,22.5*
%
%ADD10R,0.0630X0.0709*%
%ADD11R,0.0433X0.0394*%
%ADD12R,0.0660X0.0660*%
%ADD13OC8,0.0660*%
%ADD14R,0.0866X0.0197*%
%ADD15R,0.0600X0.0600*%
%ADD16OC8,0.0600*%
%ADD17R,0.0394X0.0433*%
%ADD18R,0.0390X0.0272*%
%ADD19C,0.0160*%
%ADD20C,0.0270*%
%ADD21C,0.0100*%
D10*
X003199Y002200D03*
X004301Y002200D03*
X005299Y002200D03*
X006401Y002200D03*
D11*
X005095Y005400D03*
X004425Y005400D03*
X003835Y005400D03*
X003165Y005400D03*
D12*
X008700Y005100D03*
D13*
X007700Y005100D03*
X007700Y004100D03*
X007700Y003100D03*
X008700Y003100D03*
X008700Y004100D03*
D14*
X005392Y004200D03*
X005392Y003700D03*
X005392Y003200D03*
X005392Y004700D03*
X002908Y004700D03*
X002908Y004200D03*
X002908Y003700D03*
X002908Y003200D03*
D15*
X005650Y006750D03*
X005650Y007750D03*
X005650Y008750D03*
D16*
X004650Y008750D03*
X004650Y007750D03*
X003650Y007750D03*
X003650Y008750D03*
X002650Y008750D03*
X002650Y007750D03*
X002650Y006750D03*
X003650Y006750D03*
X004650Y006750D03*
X006650Y007750D03*
X006650Y008750D03*
X001650Y008750D03*
X001650Y007750D03*
X001650Y006750D03*
X000770Y004110D03*
X000770Y003120D03*
D17*
X003450Y001485D03*
X003450Y000815D03*
X005900Y000765D03*
X005900Y001435D03*
D18*
X005312Y001574D03*
X005312Y000826D03*
X004288Y000826D03*
X004288Y001200D03*
X004288Y001574D03*
D19*
X003339Y001574D01*
X003450Y001485D01*
X003200Y001699D01*
X003199Y002200D01*
X002179Y003120D01*
X000770Y003120D01*
X003835Y005400D02*
X004425Y005400D01*
X004425Y005025D01*
X004750Y004700D01*
X005392Y004700D01*
X006300Y004700D01*
X006700Y005100D01*
X007700Y005100D01*
X007700Y006700D01*
X006650Y007750D01*
X005650Y007750D01*
X004650Y007750D01*
X003650Y007750D01*
X002650Y007750D01*
X001650Y007750D01*
X005050Y002650D02*
X005200Y002201D01*
X005299Y002200D01*
X005312Y002169D02*
X005312Y001574D01*
X005311Y002169D02*
X005310Y002180D01*
X005305Y002191D01*
X005298Y002200D01*
X005312Y000826D02*
X005754Y000826D01*
X005781Y000824D01*
X005808Y000819D01*
X005833Y000810D01*
X005858Y000798D01*
X005880Y000783D01*
X005900Y000765D01*
D20*
X005050Y002650D03*
X004350Y003800D03*
X004000Y004400D03*
X004750Y004700D03*
X005200Y005600D03*
X006100Y005700D03*
X006300Y003700D03*
D21*
X000549Y000549D02*
X000393Y000764D01*
X000310Y001017D01*
X000300Y001150D01*
X000300Y008650D01*
X000310Y008783D01*
X000393Y009036D01*
X000549Y009251D01*
X000764Y009407D01*
X001017Y009490D01*
X001150Y009500D01*
X008650Y009500D01*
X008783Y009490D01*
X009036Y009407D01*
X009251Y009251D01*
X009407Y009036D01*
X009490Y008783D01*
X009500Y008650D01*
X009500Y001150D01*
X009490Y001017D01*
X009407Y000764D01*
X009251Y000549D01*
X009036Y000393D01*
X008783Y000310D01*
X008650Y000300D01*
X001150Y000300D01*
X001017Y000310D01*
X000764Y000393D01*
X000549Y000549D01*
X000556Y000544D02*
X003113Y000544D01*
X003113Y000541D02*
X003133Y000507D01*
X003161Y000479D01*
X003195Y000459D01*
X003233Y000449D01*
X003402Y000449D01*
X003402Y000767D01*
X003498Y000767D01*
X003498Y000449D01*
X003667Y000449D01*
X003705Y000459D01*
X003739Y000479D01*
X003767Y000507D01*
X003787Y000541D01*
X003797Y000579D01*
X003797Y000767D01*
X003498Y000767D01*
X003498Y000864D01*
X003797Y000864D01*
X003797Y001052D01*
X003787Y001090D01*
X003767Y001124D01*
X003741Y001150D01*
X003797Y001206D01*
X003797Y001344D01*
X003943Y001344D01*
X003943Y001218D01*
X004270Y001218D01*
X004270Y001182D01*
X003943Y001182D01*
X003943Y001044D01*
X003948Y001028D01*
X003943Y001024D01*
X003943Y000628D01*
X004031Y000540D01*
X004545Y000540D01*
X004631Y000626D01*
X004783Y000626D01*
X004900Y000743D01*
X004900Y001657D01*
X004783Y001774D01*
X004748Y001774D01*
X004756Y001788D01*
X004766Y001826D01*
X004766Y002150D01*
X004351Y002150D01*
X004351Y002250D01*
X004251Y002250D01*
X004251Y002150D01*
X003836Y002150D01*
X003836Y001826D01*
X003842Y001804D01*
X003756Y001804D01*
X003709Y001851D01*
X003664Y001851D01*
X003664Y002616D01*
X003576Y002704D01*
X002983Y002704D01*
X002709Y002952D01*
X002908Y002952D01*
X002908Y003200D01*
X002908Y003448D01*
X002455Y003448D01*
X002417Y003438D01*
X002383Y003418D01*
X002355Y003391D01*
X002335Y003356D01*
X002325Y003318D01*
X002325Y003299D01*
X002274Y003350D01*
X002267Y003350D01*
X002262Y003355D01*
X002173Y003350D01*
X001176Y003350D01*
X000956Y003570D01*
X000584Y003570D01*
X000320Y003306D01*
X000320Y002934D01*
X000584Y002670D01*
X000956Y002670D01*
X001176Y002890D01*
X002090Y002890D01*
X002734Y002310D01*
X002734Y001784D01*
X002822Y001696D01*
X002970Y001696D01*
X002970Y001690D01*
X002970Y001603D01*
X002977Y001596D01*
X002978Y001586D01*
X003044Y001530D01*
X003103Y001471D01*
X003103Y001206D01*
X003159Y001150D01*
X003133Y001124D01*
X003113Y001090D01*
X003103Y001052D01*
X003103Y000864D01*
X003402Y000864D01*
X003402Y000767D01*
X003103Y000767D01*
X003103Y000579D01*
X003113Y000541D01*
X003103Y000643D02*
X001680Y000643D01*
X001792Y000689D02*
X002011Y000908D01*
X002130Y001195D01*
X002130Y001505D01*
X002011Y001792D01*
X001792Y002011D01*
X001505Y002130D01*
X001195Y002130D01*
X000908Y002011D01*
X000689Y001792D01*
X000570Y001505D01*
X000570Y001195D01*
X000689Y000908D01*
X000908Y000689D01*
X001195Y000570D01*
X001505Y000570D01*
X001792Y000689D01*
X001844Y000741D02*
X003103Y000741D01*
X003103Y000938D02*
X002024Y000938D01*
X002064Y001037D02*
X003103Y001037D01*
X003144Y001135D02*
X002105Y001135D01*
X002130Y001234D02*
X003103Y001234D01*
X003103Y001332D02*
X002130Y001332D01*
X002130Y001431D02*
X003103Y001431D01*
X003045Y001529D02*
X002120Y001529D01*
X002079Y001628D02*
X002970Y001628D01*
X002791Y001726D02*
X002038Y001726D01*
X001978Y001825D02*
X002734Y001825D01*
X002734Y001923D02*
X001880Y001923D01*
X001767Y002022D02*
X002734Y002022D01*
X002734Y002120D02*
X001529Y002120D01*
X001171Y002120D02*
X000300Y002120D01*
X000300Y002022D02*
X000933Y002022D01*
X000820Y001923D02*
X000300Y001923D01*
X000300Y001825D02*
X000722Y001825D01*
X000662Y001726D02*
X000300Y001726D01*
X000300Y001628D02*
X000621Y001628D01*
X000580Y001529D02*
X000300Y001529D01*
X000300Y001431D02*
X000570Y001431D01*
X000570Y001332D02*
X000300Y001332D01*
X000300Y001234D02*
X000570Y001234D01*
X000595Y001135D02*
X000301Y001135D01*
X000309Y001037D02*
X000636Y001037D01*
X000676Y000938D02*
X000336Y000938D01*
X000368Y000840D02*
X000758Y000840D01*
X000856Y000741D02*
X000409Y000741D01*
X000481Y000643D02*
X001020Y000643D01*
X000905Y000347D02*
X008895Y000347D01*
X009109Y000446D02*
X006206Y000446D01*
X006247Y000487D02*
X006247Y001044D01*
X006191Y001100D01*
X006217Y001126D01*
X006237Y001160D01*
X006247Y001198D01*
X006247Y001386D01*
X005948Y001386D01*
X005948Y001483D01*
X005852Y001483D01*
X005852Y001801D01*
X005764Y001801D01*
X005764Y002616D01*
X005676Y002704D01*
X005335Y002704D01*
X005335Y002707D01*
X005317Y002750D01*
X006767Y002750D01*
X007167Y002350D01*
X008233Y002350D01*
X008350Y002467D01*
X008503Y002620D01*
X008899Y002620D01*
X009180Y002901D01*
X009180Y003299D01*
X008899Y003580D01*
X008501Y003580D01*
X008220Y003299D01*
X008220Y002903D01*
X008067Y002750D01*
X008029Y002750D01*
X008180Y002901D01*
X008180Y003050D01*
X007750Y003050D01*
X007750Y003150D01*
X007650Y003150D01*
X007650Y003580D01*
X007501Y003580D01*
X007220Y003299D01*
X007220Y003150D01*
X007650Y003150D01*
X007650Y003050D01*
X007220Y003050D01*
X007220Y002901D01*
X007371Y002750D01*
X007333Y002750D01*
X007050Y003033D01*
X006983Y003100D01*
X007503Y003620D01*
X007899Y003620D01*
X008180Y003901D01*
X008180Y004299D01*
X008079Y004400D01*
X008117Y004400D01*
X008220Y004297D01*
X008220Y003901D01*
X008501Y003620D01*
X008899Y003620D01*
X009180Y003901D01*
X009180Y004299D01*
X008899Y004580D01*
X008503Y004580D01*
X008463Y004620D01*
X009092Y004620D01*
X009180Y004708D01*
X009180Y005492D01*
X009092Y005580D01*
X008308Y005580D01*
X008220Y005492D01*
X008220Y004800D01*
X008079Y004800D01*
X008180Y004901D01*
X008180Y005299D01*
X007930Y005549D01*
X007930Y006795D01*
X007100Y007625D01*
X007100Y007936D01*
X006836Y008200D01*
X006464Y008200D01*
X006244Y007980D01*
X006100Y007980D01*
X006100Y008112D01*
X006012Y008200D01*
X005288Y008200D01*
X005200Y008112D01*
X005200Y007980D01*
X005056Y007980D01*
X004836Y008200D01*
X004464Y008200D01*
X004244Y007980D01*
X004056Y007980D01*
X003836Y008200D01*
X003464Y008200D01*
X003244Y007980D01*
X003056Y007980D01*
X002836Y008200D01*
X002464Y008200D01*
X002244Y007980D01*
X002056Y007980D01*
X001836Y008200D01*
X001464Y008200D01*
X001200Y007936D01*
X001200Y007564D01*
X001464Y007300D01*
X001836Y007300D01*
X002056Y007520D01*
X002244Y007520D01*
X002464Y007300D01*
X002836Y007300D01*
X003056Y007520D01*
X003244Y007520D01*
X003464Y007300D01*
X003836Y007300D01*
X004056Y007520D01*
X004244Y007520D01*
X004464Y007300D01*
X004836Y007300D01*
X005056Y007520D01*
X005200Y007520D01*
X005200Y007388D01*
X005288Y007300D01*
X006012Y007300D01*
X006100Y007388D01*
X006100Y007520D01*
X006244Y007520D01*
X006464Y007300D01*
X006775Y007300D01*
X007470Y006605D01*
X007470Y005549D01*
X007251Y005330D01*
X006605Y005330D01*
X006470Y005195D01*
X006205Y004930D01*
X005905Y004930D01*
X005887Y004948D01*
X004897Y004948D01*
X004896Y004948D01*
X004807Y004985D01*
X004790Y004985D01*
X004713Y005062D01*
X004760Y005109D01*
X004786Y005083D01*
X004820Y005063D01*
X004858Y005053D01*
X005046Y005053D01*
X005046Y005352D01*
X005143Y005352D01*
X005143Y005448D01*
X005461Y005448D01*
X005461Y005617D01*
X005451Y005655D01*
X005431Y005689D01*
X005403Y005717D01*
X005369Y005737D01*
X005331Y005747D01*
X005143Y005747D01*
X005143Y005448D01*
X005046Y005448D01*
X005046Y005747D01*
X004858Y005747D01*
X004820Y005737D01*
X004786Y005717D01*
X004760Y005691D01*
X004704Y005747D01*
X004147Y005747D01*
X004130Y005730D01*
X004113Y005747D01*
X003556Y005747D01*
X003500Y005691D01*
X003444Y005747D01*
X002887Y005747D01*
X002799Y005659D01*
X002799Y005316D01*
X002708Y005226D01*
X002708Y004948D01*
X002450Y004948D01*
X002450Y006267D01*
X002483Y006300D01*
X002836Y006300D01*
X003100Y006564D01*
X003100Y006936D01*
X002836Y007200D01*
X002464Y007200D01*
X002200Y006936D01*
X002200Y006583D01*
X002050Y006433D01*
X002050Y004283D01*
X001850Y004483D01*
X001850Y006314D01*
X002100Y006564D01*
X002100Y006936D01*
X001836Y007200D01*
X001464Y007200D01*
X001200Y006936D01*
X001200Y006564D01*
X001450Y006314D01*
X001450Y004317D01*
X001567Y004200D01*
X002267Y003500D01*
X002365Y003500D01*
X002413Y003452D01*
X003403Y003452D01*
X003491Y003539D01*
X003491Y003726D01*
X003517Y003700D01*
X004467Y002750D01*
X004783Y002750D01*
X004765Y002707D01*
X004765Y002593D01*
X004808Y002489D01*
X004834Y002463D01*
X004834Y001784D01*
X004922Y001696D01*
X004967Y001696D01*
X004967Y001376D01*
X005055Y001288D01*
X005553Y001288D01*
X005553Y001198D01*
X005563Y001160D01*
X005583Y001126D01*
X005609Y001100D01*
X005595Y001086D01*
X005569Y001112D01*
X005055Y001112D01*
X004967Y001024D01*
X004967Y000628D01*
X005055Y000540D01*
X005553Y000540D01*
X005553Y000487D01*
X005641Y000399D01*
X006159Y000399D01*
X006247Y000487D01*
X006247Y000544D02*
X009244Y000544D01*
X009319Y000643D02*
X006247Y000643D01*
X006247Y000741D02*
X009391Y000741D01*
X009432Y000840D02*
X006247Y000840D01*
X006247Y000938D02*
X009464Y000938D01*
X009491Y001037D02*
X006247Y001037D01*
X006222Y001135D02*
X009499Y001135D01*
X009500Y001234D02*
X006247Y001234D01*
X006247Y001332D02*
X009500Y001332D01*
X009500Y001431D02*
X005948Y001431D01*
X005948Y001483D02*
X006247Y001483D01*
X006247Y001671D01*
X006240Y001696D01*
X006351Y001696D01*
X006351Y002150D01*
X005936Y002150D01*
X005936Y001826D01*
X005946Y001788D01*
X005948Y001784D01*
X005948Y001483D01*
X005948Y001529D02*
X005852Y001529D01*
X005852Y001628D02*
X005948Y001628D01*
X005948Y001726D02*
X005852Y001726D01*
X005937Y001825D02*
X005764Y001825D01*
X005764Y001923D02*
X005936Y001923D01*
X005936Y002022D02*
X005764Y002022D01*
X005764Y002120D02*
X005936Y002120D01*
X005936Y002250D02*
X006351Y002250D01*
X006351Y002150D01*
X006451Y002150D01*
X006451Y001696D01*
X006736Y001696D01*
X006774Y001706D01*
X006808Y001726D01*
X006836Y001754D01*
X006856Y001788D01*
X006866Y001826D01*
X006866Y002150D01*
X006451Y002150D01*
X006451Y002250D01*
X006351Y002250D01*
X006351Y002704D01*
X006066Y002704D01*
X006028Y002694D01*
X005994Y002674D01*
X005966Y002646D01*
X005946Y002612D01*
X005936Y002574D01*
X005936Y002250D01*
X005936Y002317D02*
X005764Y002317D01*
X005764Y002219D02*
X006351Y002219D01*
X006351Y002317D02*
X006451Y002317D01*
X006451Y002250D02*
X006451Y002704D01*
X006736Y002704D01*
X006774Y002694D01*
X006808Y002674D01*
X006836Y002646D01*
X006856Y002612D01*
X006866Y002574D01*
X006866Y002250D01*
X006451Y002250D01*
X006451Y002219D02*
X009500Y002219D01*
X009500Y002317D02*
X006866Y002317D01*
X006866Y002416D02*
X007102Y002416D01*
X007003Y002514D02*
X006866Y002514D01*
X006856Y002613D02*
X006905Y002613D01*
X006806Y002711D02*
X005333Y002711D01*
X005764Y002613D02*
X005947Y002613D01*
X005936Y002514D02*
X005764Y002514D01*
X005764Y002416D02*
X005936Y002416D01*
X006351Y002416D02*
X006451Y002416D01*
X006451Y002514D02*
X006351Y002514D01*
X006351Y002613D02*
X006451Y002613D01*
X006850Y002950D02*
X004550Y002950D01*
X003600Y003900D01*
X003600Y004550D01*
X003450Y004700D01*
X002908Y004700D01*
X002908Y005143D01*
X003165Y005400D01*
X002799Y005371D02*
X002450Y005371D01*
X002450Y005469D02*
X002799Y005469D01*
X002799Y005568D02*
X002450Y005568D01*
X002450Y005666D02*
X002806Y005666D01*
X002450Y005765D02*
X005818Y005765D01*
X005815Y005757D02*
X005815Y005643D01*
X005858Y005539D01*
X005939Y005458D01*
X006043Y005415D01*
X006157Y005415D01*
X006261Y005458D01*
X006342Y005539D01*
X006385Y005643D01*
X006385Y005757D01*
X006342Y005861D01*
X006300Y005903D01*
X006300Y006383D01*
X006100Y006583D01*
X006100Y007112D01*
X006012Y007200D01*
X005288Y007200D01*
X005200Y007112D01*
X005200Y006388D01*
X005288Y006300D01*
X005817Y006300D01*
X005900Y006217D01*
X005900Y005903D01*
X005858Y005861D01*
X005815Y005757D01*
X005815Y005666D02*
X005444Y005666D01*
X005461Y005568D02*
X005846Y005568D01*
X005928Y005469D02*
X005461Y005469D01*
X005461Y005352D02*
X005143Y005352D01*
X005143Y005053D01*
X005331Y005053D01*
X005369Y005063D01*
X005403Y005083D01*
X005431Y005111D01*
X005451Y005145D01*
X005461Y005183D01*
X005461Y005352D01*
X005461Y005272D02*
X006547Y005272D01*
X006448Y005174D02*
X005459Y005174D01*
X005389Y005075D02*
X006350Y005075D01*
X006251Y004977D02*
X004827Y004977D01*
X004800Y005075D02*
X004726Y005075D01*
X005046Y005075D02*
X005143Y005075D01*
X005143Y005174D02*
X005046Y005174D01*
X005046Y005272D02*
X005143Y005272D01*
X005143Y005371D02*
X007292Y005371D01*
X007390Y005469D02*
X006272Y005469D01*
X006354Y005568D02*
X007470Y005568D01*
X007470Y005666D02*
X006385Y005666D01*
X006382Y005765D02*
X007470Y005765D01*
X007470Y005863D02*
X006340Y005863D01*
X006300Y005962D02*
X007470Y005962D01*
X007470Y006060D02*
X006300Y006060D01*
X006300Y006159D02*
X007470Y006159D01*
X007470Y006257D02*
X006300Y006257D01*
X006300Y006356D02*
X007470Y006356D01*
X007470Y006454D02*
X006229Y006454D01*
X006130Y006553D02*
X007470Y006553D01*
X007424Y006651D02*
X006100Y006651D01*
X006100Y006750D02*
X007325Y006750D01*
X007227Y006848D02*
X006100Y006848D01*
X006100Y006947D02*
X007128Y006947D01*
X007030Y007045D02*
X006100Y007045D01*
X006069Y007144D02*
X006931Y007144D01*
X006833Y007242D02*
X000300Y007242D01*
X000300Y007144D02*
X001407Y007144D01*
X001309Y007045D02*
X000300Y007045D01*
X000300Y006947D02*
X001210Y006947D01*
X001200Y006848D02*
X000300Y006848D01*
X000300Y006750D02*
X001200Y006750D01*
X001200Y006651D02*
X000300Y006651D01*
X000300Y006553D02*
X001211Y006553D01*
X001310Y006454D02*
X000300Y006454D01*
X000300Y006356D02*
X001408Y006356D01*
X001450Y006257D02*
X000300Y006257D01*
X000300Y006159D02*
X001450Y006159D01*
X001450Y006060D02*
X000300Y006060D01*
X000300Y005962D02*
X001450Y005962D01*
X001450Y005863D02*
X000300Y005863D01*
X000300Y005765D02*
X001450Y005765D01*
X001450Y005666D02*
X000300Y005666D01*
X000300Y005568D02*
X001450Y005568D01*
X001450Y005469D02*
X000300Y005469D01*
X000300Y005371D02*
X001450Y005371D01*
X001450Y005272D02*
X000300Y005272D01*
X000300Y005174D02*
X001450Y005174D01*
X001450Y005075D02*
X000300Y005075D01*
X000300Y004977D02*
X001450Y004977D01*
X001450Y004878D02*
X000300Y004878D01*
X000300Y004780D02*
X001450Y004780D01*
X001450Y004681D02*
X000300Y004681D01*
X000300Y004583D02*
X001450Y004583D01*
X001450Y004484D02*
X001032Y004484D01*
X000956Y004560D02*
X000820Y004560D01*
X000820Y004160D01*
X001220Y004160D01*
X001220Y004296D01*
X000956Y004560D01*
X000820Y004484D02*
X000720Y004484D01*
X000720Y004560D02*
X000584Y004560D01*
X000320Y004296D01*
X000320Y004160D01*
X000720Y004160D01*
X000720Y004560D01*
X000720Y004386D02*
X000820Y004386D01*
X000820Y004287D02*
X000720Y004287D01*
X000720Y004189D02*
X000820Y004189D01*
X000820Y004160D02*
X000720Y004160D01*
X000720Y004060D01*
X000820Y004060D01*
X000820Y004160D01*
X000820Y004090D02*
X001677Y004090D01*
X001579Y004189D02*
X001220Y004189D01*
X001220Y004287D02*
X001480Y004287D01*
X001450Y004386D02*
X001131Y004386D01*
X001220Y004060D02*
X000820Y004060D01*
X000820Y003660D01*
X000956Y003660D01*
X001220Y003924D01*
X001220Y004060D01*
X001220Y003992D02*
X001776Y003992D01*
X001874Y003893D02*
X001189Y003893D01*
X001091Y003795D02*
X001973Y003795D01*
X002071Y003696D02*
X000992Y003696D01*
X000820Y003696D02*
X000720Y003696D01*
X000720Y003660D02*
X000720Y004060D01*
X000320Y004060D01*
X000320Y003924D01*
X000584Y003660D01*
X000720Y003660D01*
X000720Y003795D02*
X000820Y003795D01*
X000820Y003893D02*
X000720Y003893D01*
X000720Y003992D02*
X000820Y003992D01*
X000720Y004090D02*
X000300Y004090D01*
X000300Y003992D02*
X000320Y003992D01*
X000300Y003893D02*
X000351Y003893D01*
X000300Y003795D02*
X000449Y003795D01*
X000548Y003696D02*
X000300Y003696D01*
X000300Y003598D02*
X002170Y003598D01*
X002350Y003700D02*
X001650Y004400D01*
X001650Y006750D01*
X001990Y006454D02*
X002071Y006454D01*
X002089Y006553D02*
X002170Y006553D01*
X002200Y006651D02*
X002100Y006651D01*
X002100Y006750D02*
X002200Y006750D01*
X002200Y006848D02*
X002100Y006848D01*
X002090Y006947D02*
X002210Y006947D01*
X002309Y007045D02*
X001991Y007045D01*
X001893Y007144D02*
X002407Y007144D01*
X002423Y007341D02*
X001877Y007341D01*
X001975Y007439D02*
X002325Y007439D01*
X002877Y007341D02*
X003423Y007341D01*
X003325Y007439D02*
X002975Y007439D01*
X002893Y007144D02*
X003407Y007144D01*
X003464Y007200D02*
X003200Y006936D01*
X003200Y006564D01*
X003464Y006300D01*
X003836Y006300D01*
X004100Y006564D01*
X004100Y006936D01*
X003836Y007200D01*
X003464Y007200D01*
X003309Y007045D02*
X002991Y007045D01*
X003090Y006947D02*
X003210Y006947D01*
X003200Y006848D02*
X003100Y006848D01*
X003100Y006750D02*
X003200Y006750D01*
X003200Y006651D02*
X003100Y006651D01*
X003089Y006553D02*
X003211Y006553D01*
X003310Y006454D02*
X002990Y006454D01*
X002892Y006356D02*
X003408Y006356D01*
X003892Y006356D02*
X004408Y006356D01*
X004464Y006300D02*
X004836Y006300D01*
X005100Y006564D01*
X005100Y006936D01*
X004836Y007200D01*
X004464Y007200D01*
X004200Y006936D01*
X004200Y006564D01*
X004464Y006300D01*
X004310Y006454D02*
X003990Y006454D01*
X004089Y006553D02*
X004211Y006553D01*
X004200Y006651D02*
X004100Y006651D01*
X004100Y006750D02*
X004200Y006750D01*
X004200Y006848D02*
X004100Y006848D01*
X004090Y006947D02*
X004210Y006947D01*
X004309Y007045D02*
X003991Y007045D01*
X003893Y007144D02*
X004407Y007144D01*
X004423Y007341D02*
X003877Y007341D01*
X003975Y007439D02*
X004325Y007439D01*
X004877Y007341D02*
X005247Y007341D01*
X005200Y007439D02*
X004975Y007439D01*
X004893Y007144D02*
X005231Y007144D01*
X005200Y007045D02*
X004991Y007045D01*
X005090Y006947D02*
X005200Y006947D01*
X005200Y006848D02*
X005100Y006848D01*
X005100Y006750D02*
X005200Y006750D01*
X005200Y006651D02*
X005100Y006651D01*
X005089Y006553D02*
X005200Y006553D01*
X005200Y006454D02*
X004990Y006454D01*
X004892Y006356D02*
X005232Y006356D01*
X005650Y006750D02*
X006100Y006300D01*
X006100Y005700D01*
X005900Y005962D02*
X002450Y005962D01*
X002450Y006060D02*
X005900Y006060D01*
X005900Y006159D02*
X002450Y006159D01*
X002450Y006257D02*
X005860Y006257D01*
X005860Y005863D02*
X002450Y005863D01*
X002050Y005863D02*
X001850Y005863D01*
X001850Y005765D02*
X002050Y005765D01*
X002050Y005666D02*
X001850Y005666D01*
X001850Y005568D02*
X002050Y005568D01*
X002050Y005469D02*
X001850Y005469D01*
X001850Y005371D02*
X002050Y005371D01*
X002050Y005272D02*
X001850Y005272D01*
X001850Y005174D02*
X002050Y005174D01*
X002050Y005075D02*
X001850Y005075D01*
X001850Y004977D02*
X002050Y004977D01*
X002050Y004878D02*
X001850Y004878D01*
X001850Y004780D02*
X002050Y004780D01*
X002050Y004681D02*
X001850Y004681D01*
X001850Y004583D02*
X002050Y004583D01*
X002050Y004484D02*
X001850Y004484D01*
X001947Y004386D02*
X002050Y004386D01*
X002046Y004287D02*
X002050Y004287D01*
X002250Y004350D02*
X002250Y006350D01*
X002650Y006750D01*
X002050Y006356D02*
X001892Y006356D01*
X001850Y006257D02*
X002050Y006257D01*
X002050Y006159D02*
X001850Y006159D01*
X001850Y006060D02*
X002050Y006060D01*
X002050Y005962D02*
X001850Y005962D01*
X002450Y005272D02*
X002755Y005272D01*
X002708Y005174D02*
X002450Y005174D01*
X002450Y005075D02*
X002708Y005075D01*
X002708Y004977D02*
X002450Y004977D01*
X002250Y004350D02*
X002400Y004200D01*
X002908Y004200D01*
X002908Y003700D02*
X002350Y003700D01*
X002366Y003499D02*
X001027Y003499D01*
X001126Y003401D02*
X002365Y003401D01*
X002325Y003302D02*
X002322Y003302D01*
X002180Y002810D02*
X001096Y002810D01*
X000997Y002711D02*
X002289Y002711D01*
X002398Y002613D02*
X000300Y002613D01*
X000300Y002711D02*
X000543Y002711D01*
X000444Y002810D02*
X000300Y002810D01*
X000300Y002908D02*
X000346Y002908D01*
X000320Y003007D02*
X000300Y003007D01*
X000300Y003105D02*
X000320Y003105D01*
X000320Y003204D02*
X000300Y003204D01*
X000300Y003302D02*
X000320Y003302D01*
X000300Y003401D02*
X000414Y003401D01*
X000513Y003499D02*
X000300Y003499D01*
X000300Y004189D02*
X000320Y004189D01*
X000320Y004287D02*
X000300Y004287D01*
X000300Y004386D02*
X000409Y004386D01*
X000508Y004484D02*
X000300Y004484D01*
X000300Y002514D02*
X002507Y002514D01*
X002616Y002416D02*
X000300Y002416D01*
X000300Y002317D02*
X002726Y002317D01*
X002734Y002219D02*
X000300Y002219D01*
X001942Y000840D02*
X003402Y000840D01*
X003498Y000840D02*
X003943Y000840D01*
X003943Y000938D02*
X003797Y000938D01*
X003797Y001037D02*
X003945Y001037D01*
X003943Y001135D02*
X003756Y001135D01*
X003797Y001234D02*
X003943Y001234D01*
X003943Y001332D02*
X003797Y001332D01*
X003837Y001825D02*
X003736Y001825D01*
X003664Y001923D02*
X003836Y001923D01*
X003836Y002022D02*
X003664Y002022D01*
X003664Y002120D02*
X003836Y002120D01*
X003836Y002250D02*
X004251Y002250D01*
X004251Y002704D01*
X003966Y002704D01*
X003928Y002694D01*
X003894Y002674D01*
X003866Y002646D01*
X003846Y002612D01*
X003836Y002574D01*
X003836Y002250D01*
X003836Y002317D02*
X003664Y002317D01*
X003664Y002219D02*
X004251Y002219D01*
X004251Y002317D02*
X004351Y002317D01*
X004351Y002250D02*
X004351Y002704D01*
X004636Y002704D01*
X004674Y002694D01*
X004708Y002674D01*
X004736Y002646D01*
X004756Y002612D01*
X004766Y002574D01*
X004766Y002250D01*
X004351Y002250D01*
X004351Y002219D02*
X004834Y002219D01*
X004834Y002317D02*
X004766Y002317D01*
X004766Y002416D02*
X004834Y002416D01*
X004798Y002514D02*
X004766Y002514D01*
X004756Y002613D02*
X004765Y002613D01*
X004767Y002711D02*
X002976Y002711D01*
X002866Y002810D02*
X004408Y002810D01*
X004309Y002908D02*
X002757Y002908D01*
X002908Y002952D02*
X003361Y002952D01*
X003399Y002962D01*
X003433Y002982D01*
X003461Y003009D01*
X003481Y003044D01*
X003491Y003082D01*
X003491Y003200D01*
X002908Y003200D01*
X002908Y003200D01*
X002908Y003200D01*
X002908Y003448D01*
X003361Y003448D01*
X003399Y003438D01*
X003433Y003418D01*
X003461Y003391D01*
X003481Y003356D01*
X003491Y003318D01*
X003491Y003200D01*
X002908Y003200D01*
X002908Y002952D01*
X002908Y003007D02*
X002908Y003007D01*
X002908Y003105D02*
X002908Y003105D01*
X002908Y003200D02*
X002908Y003200D01*
X002908Y003204D02*
X002908Y003204D01*
X002908Y003302D02*
X002908Y003302D01*
X002908Y003401D02*
X002908Y003401D01*
X003451Y003401D02*
X003817Y003401D01*
X003718Y003499D02*
X003451Y003499D01*
X003491Y003598D02*
X003620Y003598D01*
X003521Y003696D02*
X003491Y003696D01*
X003491Y003302D02*
X003915Y003302D01*
X004014Y003204D02*
X003491Y003204D01*
X003491Y003105D02*
X004112Y003105D01*
X004211Y003007D02*
X003458Y003007D01*
X003664Y002613D02*
X003847Y002613D01*
X003836Y002514D02*
X003664Y002514D01*
X003664Y002416D02*
X003836Y002416D01*
X004251Y002416D02*
X004351Y002416D01*
X004351Y002514D02*
X004251Y002514D01*
X004251Y002613D02*
X004351Y002613D01*
X004766Y002120D02*
X004834Y002120D01*
X004834Y002022D02*
X004766Y002022D01*
X004766Y001923D02*
X004834Y001923D01*
X004834Y001825D02*
X004766Y001825D01*
X004831Y001726D02*
X004891Y001726D01*
X004900Y001628D02*
X004967Y001628D01*
X004967Y001529D02*
X004900Y001529D01*
X004900Y001431D02*
X004967Y001431D01*
X005011Y001332D02*
X004900Y001332D01*
X004900Y001234D02*
X005553Y001234D01*
X005578Y001135D02*
X004900Y001135D01*
X004900Y001037D02*
X004980Y001037D01*
X004967Y000938D02*
X004900Y000938D01*
X004900Y000840D02*
X004967Y000840D01*
X004967Y000741D02*
X004898Y000741D01*
X004967Y000643D02*
X004799Y000643D01*
X004700Y000826D02*
X004700Y001574D01*
X004288Y001574D01*
X004288Y000826D02*
X004700Y000826D01*
X004549Y000544D02*
X005051Y000544D01*
X005594Y000446D02*
X000691Y000446D01*
X003402Y000544D02*
X003498Y000544D01*
X003498Y000643D02*
X003402Y000643D01*
X003402Y000741D02*
X003498Y000741D01*
X003797Y000741D02*
X003943Y000741D01*
X003943Y000643D02*
X003797Y000643D01*
X003787Y000544D02*
X004027Y000544D01*
X006247Y001529D02*
X009500Y001529D01*
X009500Y001628D02*
X006247Y001628D01*
X006351Y001726D02*
X006451Y001726D01*
X006451Y001825D02*
X006351Y001825D01*
X006351Y001923D02*
X006451Y001923D01*
X006451Y002022D02*
X006351Y002022D01*
X006351Y002120D02*
X006451Y002120D01*
X006809Y001726D02*
X009500Y001726D01*
X009500Y001825D02*
X006866Y001825D01*
X006866Y001923D02*
X009500Y001923D01*
X009500Y002022D02*
X006866Y002022D01*
X006866Y002120D02*
X009500Y002120D01*
X009500Y002416D02*
X008298Y002416D01*
X008397Y002514D02*
X009500Y002514D01*
X009500Y002613D02*
X008495Y002613D01*
X008150Y002550D02*
X007250Y002550D01*
X006850Y002950D01*
X006988Y003105D02*
X007650Y003105D01*
X007650Y003204D02*
X007750Y003204D01*
X007750Y003150D02*
X007750Y003580D01*
X007899Y003580D01*
X008180Y003299D01*
X008180Y003150D01*
X007750Y003150D01*
X007750Y003105D02*
X008220Y003105D01*
X008220Y003007D02*
X008180Y003007D01*
X008180Y002908D02*
X008220Y002908D01*
X008127Y002810D02*
X008088Y002810D01*
X008150Y002550D02*
X008700Y003100D01*
X009078Y003401D02*
X009500Y003401D01*
X009500Y003499D02*
X008980Y003499D01*
X008975Y003696D02*
X009500Y003696D01*
X009500Y003598D02*
X007480Y003598D01*
X007420Y003499D02*
X007382Y003499D01*
X007322Y003401D02*
X007283Y003401D01*
X007223Y003302D02*
X007185Y003302D01*
X007220Y003204D02*
X007086Y003204D01*
X007076Y003007D02*
X007220Y003007D01*
X007220Y002908D02*
X007175Y002908D01*
X007273Y002810D02*
X007312Y002810D01*
X007650Y003302D02*
X007750Y003302D01*
X007750Y003401D02*
X007650Y003401D01*
X007650Y003499D02*
X007750Y003499D01*
X007980Y003499D02*
X008420Y003499D01*
X008322Y003401D02*
X008078Y003401D01*
X008177Y003302D02*
X008223Y003302D01*
X008220Y003204D02*
X008180Y003204D01*
X007975Y003696D02*
X008425Y003696D01*
X008327Y003795D02*
X008073Y003795D01*
X008172Y003893D02*
X008228Y003893D01*
X008220Y003992D02*
X008180Y003992D01*
X008180Y004090D02*
X008220Y004090D01*
X008220Y004189D02*
X008180Y004189D01*
X008180Y004287D02*
X008220Y004287D01*
X008132Y004386D02*
X008093Y004386D01*
X008200Y004600D02*
X008700Y004100D01*
X009073Y003795D02*
X009500Y003795D01*
X009500Y003893D02*
X009172Y003893D01*
X009180Y003992D02*
X009500Y003992D01*
X009500Y004090D02*
X009180Y004090D01*
X009180Y004189D02*
X009500Y004189D01*
X009500Y004287D02*
X009180Y004287D01*
X009093Y004386D02*
X009500Y004386D01*
X009500Y004484D02*
X008995Y004484D01*
X009153Y004681D02*
X009500Y004681D01*
X009500Y004583D02*
X008500Y004583D01*
X008200Y004600D02*
X007350Y004600D01*
X006950Y004200D01*
X005392Y004200D01*
X004200Y004200D01*
X004000Y004400D01*
X004350Y003800D02*
X004450Y003700D01*
X005392Y003700D01*
X006300Y003700D01*
X006800Y003200D02*
X007700Y004100D01*
X008157Y004878D02*
X008220Y004878D01*
X008220Y004977D02*
X008180Y004977D01*
X008180Y005075D02*
X008220Y005075D01*
X008220Y005174D02*
X008180Y005174D01*
X008180Y005272D02*
X008220Y005272D01*
X008220Y005371D02*
X008108Y005371D01*
X008010Y005469D02*
X008220Y005469D01*
X008295Y005568D02*
X007930Y005568D01*
X007930Y005666D02*
X009500Y005666D01*
X009500Y005568D02*
X009105Y005568D01*
X009180Y005469D02*
X009500Y005469D01*
X009500Y005371D02*
X009180Y005371D01*
X009180Y005272D02*
X009500Y005272D01*
X009500Y005174D02*
X009180Y005174D01*
X009180Y005075D02*
X009500Y005075D01*
X009500Y004977D02*
X009180Y004977D01*
X009180Y004878D02*
X009500Y004878D01*
X009500Y004780D02*
X009180Y004780D01*
X009500Y005765D02*
X007930Y005765D01*
X007930Y005863D02*
X009500Y005863D01*
X009500Y005962D02*
X007930Y005962D01*
X007930Y006060D02*
X009500Y006060D01*
X009500Y006159D02*
X007930Y006159D01*
X007930Y006257D02*
X009500Y006257D01*
X009500Y006356D02*
X007930Y006356D01*
X007930Y006454D02*
X009500Y006454D01*
X009500Y006553D02*
X007930Y006553D01*
X007930Y006651D02*
X009500Y006651D01*
X009500Y006750D02*
X007930Y006750D01*
X007877Y006848D02*
X009500Y006848D01*
X009500Y006947D02*
X007779Y006947D01*
X007680Y007045D02*
X009500Y007045D01*
X009500Y007144D02*
X007582Y007144D01*
X007483Y007242D02*
X009500Y007242D01*
X009500Y007341D02*
X007385Y007341D01*
X007286Y007439D02*
X009500Y007439D01*
X009500Y007538D02*
X007188Y007538D01*
X007100Y007636D02*
X009500Y007636D01*
X009500Y007735D02*
X008761Y007735D01*
X008892Y007789D02*
X009111Y008008D01*
X009230Y008295D01*
X009230Y008605D01*
X009111Y008892D01*
X008892Y009111D01*
X008605Y009230D01*
X008295Y009230D01*
X008008Y009111D01*
X007789Y008892D01*
X007670Y008605D01*
X007670Y008295D01*
X007789Y008008D01*
X008008Y007789D01*
X008295Y007670D01*
X008605Y007670D01*
X008892Y007789D01*
X008936Y007833D02*
X009500Y007833D01*
X009500Y007932D02*
X009034Y007932D01*
X009120Y008030D02*
X009500Y008030D01*
X009500Y008129D02*
X009161Y008129D01*
X009202Y008227D02*
X009500Y008227D01*
X009500Y008326D02*
X009230Y008326D01*
X009230Y008424D02*
X009500Y008424D01*
X009500Y008523D02*
X009230Y008523D01*
X009223Y008621D02*
X009500Y008621D01*
X009495Y008720D02*
X009183Y008720D01*
X009142Y008818D02*
X009478Y008818D01*
X009446Y008917D02*
X009086Y008917D01*
X008988Y009015D02*
X009414Y009015D01*
X009351Y009114D02*
X008886Y009114D01*
X008648Y009212D02*
X009279Y009212D01*
X009169Y009311D02*
X000631Y009311D01*
X000521Y009212D02*
X008252Y009212D01*
X008014Y009114D02*
X006923Y009114D01*
X006836Y009200D02*
X006700Y009200D01*
X006700Y008800D01*
X007100Y008800D01*
X007100Y008936D01*
X006836Y009200D01*
X006700Y009114D02*
X006600Y009114D01*
X006600Y009200D02*
X006464Y009200D01*
X006200Y008936D01*
X006200Y008800D01*
X006600Y008800D01*
X006600Y009200D01*
X006600Y009015D02*
X006700Y009015D01*
X006700Y008917D02*
X006600Y008917D01*
X006600Y008818D02*
X006700Y008818D01*
X006700Y008800D02*
X006600Y008800D01*
X006600Y008700D01*
X006700Y008700D01*
X006700Y008800D01*
X006700Y008720D02*
X007717Y008720D01*
X007758Y008818D02*
X007100Y008818D01*
X007100Y008917D02*
X007814Y008917D01*
X007912Y009015D02*
X007021Y009015D01*
X007100Y008700D02*
X006700Y008700D01*
X006700Y008300D01*
X006836Y008300D01*
X007100Y008564D01*
X007100Y008700D01*
X007100Y008621D02*
X007677Y008621D01*
X007670Y008523D02*
X007059Y008523D01*
X006960Y008424D02*
X007670Y008424D01*
X007670Y008326D02*
X006862Y008326D01*
X006700Y008326D02*
X006600Y008326D01*
X006600Y008300D02*
X006600Y008700D01*
X006200Y008700D01*
X006200Y008564D01*
X006464Y008300D01*
X006600Y008300D01*
X006600Y008424D02*
X006700Y008424D01*
X006700Y008523D02*
X006600Y008523D01*
X006600Y008621D02*
X006700Y008621D01*
X006600Y008720D02*
X005700Y008720D01*
X005700Y008700D02*
X005700Y008800D01*
X005600Y008800D01*
X005600Y009200D01*
X005330Y009200D01*
X005292Y009190D01*
X005258Y009170D01*
X005230Y009142D01*
X005210Y009108D01*
X005200Y009070D01*
X005200Y008800D01*
X005600Y008800D01*
X005600Y008700D01*
X005200Y008700D01*
X005200Y008430D01*
X005210Y008392D01*
X005230Y008358D01*
X005258Y008330D01*
X005292Y008310D01*
X005330Y008300D01*
X005600Y008300D01*
X005600Y008700D01*
X005700Y008700D01*
X006100Y008700D01*
X006100Y008430D01*
X006090Y008392D01*
X006070Y008358D01*
X006042Y008330D01*
X006008Y008310D01*
X005970Y008300D01*
X005700Y008300D01*
X005700Y008700D01*
X005700Y008621D02*
X005600Y008621D01*
X005600Y008523D02*
X005700Y008523D01*
X005700Y008424D02*
X005600Y008424D01*
X005600Y008326D02*
X005700Y008326D01*
X006034Y008326D02*
X006438Y008326D01*
X006340Y008424D02*
X006098Y008424D01*
X006100Y008523D02*
X006241Y008523D01*
X006200Y008621D02*
X006100Y008621D01*
X006100Y008800D02*
X006100Y009070D01*
X006090Y009108D01*
X006070Y009142D01*
X006042Y009170D01*
X006008Y009190D01*
X005970Y009200D01*
X005700Y009200D01*
X005700Y008800D01*
X006100Y008800D01*
X006100Y008818D02*
X006200Y008818D01*
X006200Y008917D02*
X006100Y008917D01*
X006100Y009015D02*
X006279Y009015D01*
X006377Y009114D02*
X006087Y009114D01*
X005700Y009114D02*
X005600Y009114D01*
X005600Y009015D02*
X005700Y009015D01*
X005700Y008917D02*
X005600Y008917D01*
X005600Y008818D02*
X005700Y008818D01*
X005600Y008720D02*
X004700Y008720D01*
X004700Y008700D02*
X004700Y008800D01*
X005100Y008800D01*
X005100Y008936D01*
X004836Y009200D01*
X004700Y009200D01*
X004700Y008800D01*
X004600Y008800D01*
X004600Y009200D01*
X004464Y009200D01*
X004200Y008936D01*
X004200Y008800D01*
X004600Y008800D01*
X004600Y008700D01*
X004700Y008700D01*
X005100Y008700D01*
X005100Y008564D01*
X004836Y008300D01*
X004700Y008300D01*
X004700Y008700D01*
X004700Y008621D02*
X004600Y008621D01*
X004600Y008700D02*
X004600Y008300D01*
X004464Y008300D01*
X004200Y008564D01*
X004200Y008700D01*
X004600Y008700D01*
X004600Y008720D02*
X003700Y008720D01*
X003700Y008700D02*
X003700Y008800D01*
X004100Y008800D01*
X004100Y008936D01*
X003836Y009200D01*
X003700Y009200D01*
X003700Y008800D01*
X003600Y008800D01*
X003600Y009200D01*
X003464Y009200D01*
X003200Y008936D01*
X003200Y008800D01*
X003600Y008800D01*
X003600Y008700D01*
X003700Y008700D01*
X004100Y008700D01*
X004100Y008564D01*
X003836Y008300D01*
X003700Y008300D01*
X003700Y008700D01*
X003700Y008621D02*
X003600Y008621D01*
X003600Y008700D02*
X003600Y008300D01*
X003464Y008300D01*
X003200Y008564D01*
X003200Y008700D01*
X003600Y008700D01*
X003600Y008720D02*
X002700Y008720D01*
X002700Y008700D02*
X002700Y008800D01*
X003100Y008800D01*
X003100Y008936D01*
X002836Y009200D01*
X002700Y009200D01*
X002700Y008800D01*
X002600Y008800D01*
X002600Y009200D01*
X002464Y009200D01*
X002200Y008936D01*
X002200Y008800D01*
X002600Y008800D01*
X002600Y008700D01*
X002700Y008700D01*
X003100Y008700D01*
X003100Y008564D01*
X002836Y008300D01*
X002700Y008300D01*
X002700Y008700D01*
X002700Y008621D02*
X002600Y008621D01*
X002600Y008700D02*
X002600Y008300D01*
X002464Y008300D01*
X002200Y008564D01*
X002200Y008700D01*
X002600Y008700D01*
X002600Y008720D02*
X001700Y008720D01*
X001700Y008700D02*
X001700Y008800D01*
X002100Y008800D01*
X002100Y008936D01*
X001836Y009200D01*
X001700Y009200D01*
X001700Y008800D01*
X001600Y008800D01*
X001600Y009200D01*
X001464Y009200D01*
X001200Y008936D01*
X001200Y008800D01*
X001600Y008800D01*
X001600Y008700D01*
X001700Y008700D01*
X002100Y008700D01*
X002100Y008564D01*
X001836Y008300D01*
X001700Y008300D01*
X001700Y008700D01*
X001700Y008621D02*
X001600Y008621D01*
X001600Y008700D02*
X001600Y008300D01*
X001464Y008300D01*
X001200Y008564D01*
X001200Y008700D01*
X001600Y008700D01*
X001600Y008720D02*
X000305Y008720D01*
X000300Y008621D02*
X001200Y008621D01*
X001241Y008523D02*
X000300Y008523D01*
X000300Y008424D02*
X001340Y008424D01*
X001438Y008326D02*
X000300Y008326D01*
X000300Y008227D02*
X007698Y008227D01*
X007739Y008129D02*
X006908Y008129D01*
X007006Y008030D02*
X007780Y008030D01*
X007866Y007932D02*
X007100Y007932D01*
X007100Y007833D02*
X007964Y007833D01*
X008139Y007735D02*
X007100Y007735D01*
X006423Y007341D02*
X006053Y007341D01*
X006100Y007439D02*
X006325Y007439D01*
X006294Y008030D02*
X006100Y008030D01*
X006084Y008129D02*
X006392Y008129D01*
X005266Y008326D02*
X004862Y008326D01*
X004960Y008424D02*
X005202Y008424D01*
X005200Y008523D02*
X005059Y008523D01*
X005100Y008621D02*
X005200Y008621D01*
X005200Y008818D02*
X005100Y008818D01*
X005100Y008917D02*
X005200Y008917D01*
X005200Y009015D02*
X005021Y009015D01*
X004923Y009114D02*
X005213Y009114D01*
X004700Y009114D02*
X004600Y009114D01*
X004600Y009015D02*
X004700Y009015D01*
X004700Y008917D02*
X004600Y008917D01*
X004600Y008818D02*
X004700Y008818D01*
X004700Y008523D02*
X004600Y008523D01*
X004600Y008424D02*
X004700Y008424D01*
X004700Y008326D02*
X004600Y008326D01*
X004438Y008326D02*
X003862Y008326D01*
X003960Y008424D02*
X004340Y008424D01*
X004241Y008523D02*
X004059Y008523D01*
X004100Y008621D02*
X004200Y008621D01*
X004200Y008818D02*
X004100Y008818D01*
X004100Y008917D02*
X004200Y008917D01*
X004279Y009015D02*
X004021Y009015D01*
X003923Y009114D02*
X004377Y009114D01*
X003700Y009114D02*
X003600Y009114D01*
X003600Y009015D02*
X003700Y009015D01*
X003700Y008917D02*
X003600Y008917D01*
X003600Y008818D02*
X003700Y008818D01*
X003700Y008523D02*
X003600Y008523D01*
X003600Y008424D02*
X003700Y008424D01*
X003700Y008326D02*
X003600Y008326D01*
X003438Y008326D02*
X002862Y008326D01*
X002960Y008424D02*
X003340Y008424D01*
X003241Y008523D02*
X003059Y008523D01*
X003100Y008621D02*
X003200Y008621D01*
X003200Y008818D02*
X003100Y008818D01*
X003100Y008917D02*
X003200Y008917D01*
X003279Y009015D02*
X003021Y009015D01*
X002923Y009114D02*
X003377Y009114D01*
X002700Y009114D02*
X002600Y009114D01*
X002600Y009015D02*
X002700Y009015D01*
X002700Y008917D02*
X002600Y008917D01*
X002600Y008818D02*
X002700Y008818D01*
X002700Y008523D02*
X002600Y008523D01*
X002600Y008424D02*
X002700Y008424D01*
X002700Y008326D02*
X002600Y008326D01*
X002438Y008326D02*
X001862Y008326D01*
X001960Y008424D02*
X002340Y008424D01*
X002241Y008523D02*
X002059Y008523D01*
X002100Y008621D02*
X002200Y008621D01*
X002200Y008818D02*
X002100Y008818D01*
X002100Y008917D02*
X002200Y008917D01*
X002279Y009015D02*
X002021Y009015D01*
X001923Y009114D02*
X002377Y009114D01*
X001700Y009114D02*
X001600Y009114D01*
X001600Y009015D02*
X001700Y009015D01*
X001700Y008917D02*
X001600Y008917D01*
X001600Y008818D02*
X001700Y008818D01*
X001700Y008523D02*
X001600Y008523D01*
X001600Y008424D02*
X001700Y008424D01*
X001700Y008326D02*
X001600Y008326D01*
X001392Y008129D02*
X000300Y008129D01*
X000300Y008030D02*
X001294Y008030D01*
X001200Y007932D02*
X000300Y007932D01*
X000300Y007833D02*
X001200Y007833D01*
X001200Y007735D02*
X000300Y007735D01*
X000300Y007636D02*
X001200Y007636D01*
X001226Y007538D02*
X000300Y007538D01*
X000300Y007439D02*
X001325Y007439D01*
X001423Y007341D02*
X000300Y007341D01*
X000322Y008818D02*
X001200Y008818D01*
X001200Y008917D02*
X000354Y008917D01*
X000386Y009015D02*
X001279Y009015D01*
X001377Y009114D02*
X000449Y009114D01*
X000769Y009409D02*
X009031Y009409D01*
X005216Y008129D02*
X004908Y008129D01*
X005006Y008030D02*
X005200Y008030D01*
X004392Y008129D02*
X003908Y008129D01*
X004006Y008030D02*
X004294Y008030D01*
X003392Y008129D02*
X002908Y008129D01*
X003006Y008030D02*
X003294Y008030D01*
X002392Y008129D02*
X001908Y008129D01*
X002006Y008030D02*
X002294Y008030D01*
X005046Y005666D02*
X005143Y005666D01*
X005143Y005568D02*
X005046Y005568D01*
X005046Y005469D02*
X005143Y005469D01*
X005392Y003200D02*
X006800Y003200D01*
X008990Y002711D02*
X009500Y002711D01*
X009500Y002810D02*
X009088Y002810D01*
X009180Y002908D02*
X009500Y002908D01*
X009500Y003007D02*
X009180Y003007D01*
X009180Y003105D02*
X009500Y003105D01*
X009500Y003204D02*
X009180Y003204D01*
X009177Y003302D02*
X009500Y003302D01*
M02*
