%
M48
M72
T01C0.0130
T02C0.0400
T03C0.1260
%
T01
X4350Y3800
X4000Y4400
X4750Y4700
X5200Y5600
X6100Y5700
X6300Y3700
X5050Y2650
T02
X7700Y3100
X7700Y4100
X8700Y4100
X8700Y3100
X8700Y5100
X7700Y5100
X5650Y6750
X4650Y6750
X3650Y6750
X2650Y6750
X2650Y7750
X2650Y8750
X3650Y8750
X3650Y7750
X4650Y7750
X4650Y8750
X5650Y8750
X5650Y7750
X6650Y7750
X6650Y8750
X1650Y8750
X1650Y7750
X1650Y6750
X770Y4110
X770Y3120
T03
X1350Y1350
X8450Y8450
M30
