G75*
%MOIN*%
%OFA0B0*%
%FSLAX24Y24*%
%IPPOS*%
%LPD*%
%AMOC8*
5,1,8,0,0,1.08239X$1,22.5*
%
%ADD10C,0.1320*%
%ADD11R,0.0690X0.0769*%
%ADD12R,0.0493X0.0454*%
%ADD13R,0.0720X0.0720*%
%ADD14OC8,0.0720*%
%ADD15R,0.0926X0.0257*%
%ADD16R,0.0660X0.0660*%
%ADD17OC8,0.0660*%
%ADD18R,0.0454X0.0493*%
%ADD19R,0.0450X0.0332*%
D10*
X001350Y001350D03*
X008450Y008450D03*
D11*
X006401Y002200D03*
X005299Y002200D03*
X004301Y002200D03*
X003199Y002200D03*
D12*
X003165Y005400D03*
X003835Y005400D03*
X004425Y005400D03*
X005095Y005400D03*
D13*
X008700Y005100D03*
D14*
X007700Y005100D03*
X007700Y004100D03*
X007700Y003100D03*
X008700Y003100D03*
X008700Y004100D03*
D15*
X005392Y004200D03*
X005392Y003700D03*
X005392Y003200D03*
X005392Y004700D03*
X002908Y004700D03*
X002908Y004200D03*
X002908Y003700D03*
X002908Y003200D03*
D16*
X005650Y006750D03*
X005650Y007750D03*
X005650Y008750D03*
D17*
X004650Y008750D03*
X004650Y007750D03*
X003650Y007750D03*
X003650Y008750D03*
X002650Y008750D03*
X002650Y007750D03*
X002650Y006750D03*
X003650Y006750D03*
X004650Y006750D03*
X006650Y007750D03*
X006650Y008750D03*
X001650Y008750D03*
X001650Y007750D03*
X001650Y006750D03*
X000770Y004110D03*
X000770Y003120D03*
D18*
X003450Y001485D03*
X003450Y000815D03*
X005900Y000765D03*
X005900Y001435D03*
D19*
X005312Y001574D03*
X005312Y000826D03*
X004288Y000826D03*
X004288Y001200D03*
X004288Y001574D03*
M02*
