G75*
%MOIN*%
%OFA0B0*%
%FSLAX24Y24*%
%IPPOS*%
%LPD*%
%AMOC8*
5,1,8,0,0,1.08239X$1,22.5*
%
%ADD10C,0.0000*%
D10*
X000150Y001150D02*
X000150Y008650D01*
X000152Y008710D01*
X000157Y008771D01*
X000166Y008830D01*
X000179Y008889D01*
X000195Y008948D01*
X000215Y009005D01*
X000238Y009060D01*
X000265Y009115D01*
X000294Y009167D01*
X000327Y009218D01*
X000363Y009267D01*
X000401Y009313D01*
X000443Y009357D01*
X000487Y009399D01*
X000533Y009437D01*
X000582Y009473D01*
X000633Y009506D01*
X000685Y009535D01*
X000740Y009562D01*
X000795Y009585D01*
X000852Y009605D01*
X000911Y009621D01*
X000970Y009634D01*
X001029Y009643D01*
X001090Y009648D01*
X001150Y009650D01*
X008650Y009650D01*
X008710Y009648D01*
X008771Y009643D01*
X008830Y009634D01*
X008889Y009621D01*
X008948Y009605D01*
X009005Y009585D01*
X009060Y009562D01*
X009115Y009535D01*
X009167Y009506D01*
X009218Y009473D01*
X009267Y009437D01*
X009313Y009399D01*
X009357Y009357D01*
X009399Y009313D01*
X009437Y009267D01*
X009473Y009218D01*
X009506Y009167D01*
X009535Y009115D01*
X009562Y009060D01*
X009585Y009005D01*
X009605Y008948D01*
X009621Y008889D01*
X009634Y008830D01*
X009643Y008771D01*
X009648Y008710D01*
X009650Y008650D01*
X009650Y001150D01*
X009648Y001090D01*
X009643Y001029D01*
X009634Y000970D01*
X009621Y000911D01*
X009605Y000852D01*
X009585Y000795D01*
X009562Y000740D01*
X009535Y000685D01*
X009506Y000633D01*
X009473Y000582D01*
X009437Y000533D01*
X009399Y000487D01*
X009357Y000443D01*
X009313Y000401D01*
X009267Y000363D01*
X009218Y000327D01*
X009167Y000294D01*
X009115Y000265D01*
X009060Y000238D01*
X009005Y000215D01*
X008948Y000195D01*
X008889Y000179D01*
X008830Y000166D01*
X008771Y000157D01*
X008710Y000152D01*
X008650Y000150D01*
X001150Y000150D01*
X001090Y000152D01*
X001029Y000157D01*
X000970Y000166D01*
X000911Y000179D01*
X000852Y000195D01*
X000795Y000215D01*
X000740Y000238D01*
X000685Y000265D01*
X000633Y000294D01*
X000582Y000327D01*
X000533Y000363D01*
X000487Y000401D01*
X000443Y000443D01*
X000401Y000487D01*
X000363Y000533D01*
X000327Y000582D01*
X000294Y000633D01*
X000265Y000685D01*
X000238Y000740D01*
X000215Y000795D01*
X000195Y000852D01*
X000179Y000911D01*
X000166Y000970D01*
X000157Y001029D01*
X000152Y001090D01*
X000150Y001150D01*
X000720Y001350D02*
X000722Y001400D01*
X000728Y001450D01*
X000738Y001499D01*
X000752Y001547D01*
X000769Y001594D01*
X000790Y001639D01*
X000815Y001683D01*
X000843Y001724D01*
X000875Y001763D01*
X000909Y001800D01*
X000946Y001834D01*
X000986Y001864D01*
X001028Y001891D01*
X001072Y001915D01*
X001118Y001936D01*
X001165Y001952D01*
X001213Y001965D01*
X001263Y001974D01*
X001312Y001979D01*
X001363Y001980D01*
X001413Y001977D01*
X001462Y001970D01*
X001511Y001959D01*
X001559Y001944D01*
X001605Y001926D01*
X001650Y001904D01*
X001693Y001878D01*
X001734Y001849D01*
X001773Y001817D01*
X001809Y001782D01*
X001841Y001744D01*
X001871Y001704D01*
X001898Y001661D01*
X001921Y001617D01*
X001940Y001571D01*
X001956Y001523D01*
X001968Y001474D01*
X001976Y001425D01*
X001980Y001375D01*
X001980Y001325D01*
X001976Y001275D01*
X001968Y001226D01*
X001956Y001177D01*
X001940Y001129D01*
X001921Y001083D01*
X001898Y001039D01*
X001871Y000996D01*
X001841Y000956D01*
X001809Y000918D01*
X001773Y000883D01*
X001734Y000851D01*
X001693Y000822D01*
X001650Y000796D01*
X001605Y000774D01*
X001559Y000756D01*
X001511Y000741D01*
X001462Y000730D01*
X001413Y000723D01*
X001363Y000720D01*
X001312Y000721D01*
X001263Y000726D01*
X001213Y000735D01*
X001165Y000748D01*
X001118Y000764D01*
X001072Y000785D01*
X001028Y000809D01*
X000986Y000836D01*
X000946Y000866D01*
X000909Y000900D01*
X000875Y000937D01*
X000843Y000976D01*
X000815Y001017D01*
X000790Y001061D01*
X000769Y001106D01*
X000752Y001153D01*
X000738Y001201D01*
X000728Y001250D01*
X000722Y001300D01*
X000720Y001350D01*
X007820Y008450D02*
X007822Y008500D01*
X007828Y008550D01*
X007838Y008599D01*
X007852Y008647D01*
X007869Y008694D01*
X007890Y008739D01*
X007915Y008783D01*
X007943Y008824D01*
X007975Y008863D01*
X008009Y008900D01*
X008046Y008934D01*
X008086Y008964D01*
X008128Y008991D01*
X008172Y009015D01*
X008218Y009036D01*
X008265Y009052D01*
X008313Y009065D01*
X008363Y009074D01*
X008412Y009079D01*
X008463Y009080D01*
X008513Y009077D01*
X008562Y009070D01*
X008611Y009059D01*
X008659Y009044D01*
X008705Y009026D01*
X008750Y009004D01*
X008793Y008978D01*
X008834Y008949D01*
X008873Y008917D01*
X008909Y008882D01*
X008941Y008844D01*
X008971Y008804D01*
X008998Y008761D01*
X009021Y008717D01*
X009040Y008671D01*
X009056Y008623D01*
X009068Y008574D01*
X009076Y008525D01*
X009080Y008475D01*
X009080Y008425D01*
X009076Y008375D01*
X009068Y008326D01*
X009056Y008277D01*
X009040Y008229D01*
X009021Y008183D01*
X008998Y008139D01*
X008971Y008096D01*
X008941Y008056D01*
X008909Y008018D01*
X008873Y007983D01*
X008834Y007951D01*
X008793Y007922D01*
X008750Y007896D01*
X008705Y007874D01*
X008659Y007856D01*
X008611Y007841D01*
X008562Y007830D01*
X008513Y007823D01*
X008463Y007820D01*
X008412Y007821D01*
X008363Y007826D01*
X008313Y007835D01*
X008265Y007848D01*
X008218Y007864D01*
X008172Y007885D01*
X008128Y007909D01*
X008086Y007936D01*
X008046Y007966D01*
X008009Y008000D01*
X007975Y008037D01*
X007943Y008076D01*
X007915Y008117D01*
X007890Y008161D01*
X007869Y008206D01*
X007852Y008253D01*
X007838Y008301D01*
X007828Y008350D01*
X007822Y008400D01*
X007820Y008450D01*
M02*
